<svg xmlns="http://www.w3.org/2000/svg" xmlns:xlink="http://www.w3.org/1999/xlink" width="800" zoomAndPan="magnify" viewBox="0 0 375 375" height="800" preserveAspectRatio="xMidYMid meet" version="1.2"><defs><clipPath id="baeceadfbc"><path d="M 38.367188 167.222656 L 375 167.222656 L 375 375 L 38.367188 375 Z M 38.367188 167.222656 "/></clipPath></defs><g id="cb1a35e82e"><g clip-rule="nonzero" clip-path="url(#baeceadfbc)"><path style=" stroke:none;fill-rule:nonzero;fill:#383838;fill-opacity:1;" d="M 169.1875 167.542969 C 153.171875 168.246094 144.117188 169.5625 128.082031 173.476562 C 118.308594 175.878906 111.902344 177.71875 104.472656 180.242188 C 91.847656 184.535156 80.121094 190.054688 71.679688 195.699219 C 65.296875 199.972656 58.261719 206.199219 54.421875 210.996094 C 48.179688 218.75 42.75 231.179688 39.757812 244.597656 C 38.710938 249.304688 38.367188 251.992188 38.476562 254.914062 C 38.566406 257.566406 38.78125 258.613281 39.683594 260.992188 C 40.152344 262.21875 40.242188 262.726562 40.40625 265.539062 C 40.605469 269.054688 40.984375 271.148438 42.28125 275.566406 C 43.578125 280.039062 44.480469 282.492188 46.03125 285.667969 C 47.675781 289.078125 48.035156 289.941406 48.449219 291.710938 C 48.828125 293.242188 48.863281 296.996094 48.539062 299.105469 C 48.179688 301.394531 47.042969 305.90625 45.472656 311.28125 C 43.796875 317 43.109375 319.722656 42.535156 322.949219 C 42.191406 324.953125 42.136719 325.871094 42.117188 329.859375 C 42.117188 334.222656 42.15625 334.566406 42.605469 336.441406 C 43.253906 339.164062 44.050781 341.257812 45.457031 344.019531 C 47.746094 348.507812 50.886719 353.378906 54.941406 358.808594 C 56.421875 360.792969 58.964844 364.273438 60.605469 366.5625 C 70.816406 380.921875 77.597656 388.007812 85.625 392.789062 C 90.945312 395.945312 98.464844 399.15625 104.921875 401.015625 C 114.175781 403.703125 123.375 405.109375 139.878906 406.335938 C 150.792969 407.164062 153.660156 407.652344 161.613281 410.140625 C 168.703125 412.359375 173.066406 413.351562 178.476562 413.945312 C 183.132812 414.453125 219.945312 414.035156 229.433594 413.371094 C 239.082031 412.667969 244.476562 411.585938 266.226562 405.972656 C 274.6875 403.792969 297.433594 398.183594 302.03125 397.15625 C 308.921875 395.601562 323.765625 392.554688 330.242188 391.347656 C 333.976562 390.660156 340.070312 389.488281 343.785156 388.75 C 347.503906 388.007812 352.425781 387.070312 354.699219 386.65625 C 361.246094 385.484375 363.285156 384.871094 364.691406 383.679688 C 366.132812 382.472656 366.316406 380.742188 365.519531 375.941406 C 364.816406 371.832031 364.765625 369.539062 365.015625 359.078125 C 365.144531 353.957031 365.195312 347.660156 365.144531 345.046875 C 365.050781 341.671875 365.070312 340.320312 365.214844 340.320312 C 365.324219 340.320312 367.269531 340.519531 369.527344 340.753906 C 371.78125 341.003906 375.027344 341.257812 376.742188 341.332031 C 378.4375 341.402344 379.933594 341.511719 380.042969 341.582031 C 380.203125 341.691406 380.222656 342.574219 380.058594 345.351562 C 379.949219 347.335938 379.859375 350.546875 379.859375 352.441406 C 379.859375 354.351562 379.769531 357.039062 379.679688 358.410156 C 379.570312 359.980469 379.554688 361.027344 379.664062 361.226562 C 379.769531 361.386719 380.167969 361.675781 380.546875 361.855469 C 381.230469 362.164062 381.320312 362.164062 382.167969 361.890625 C 383.199219 361.550781 384.820312 360.46875 385.921875 359.402344 L 386.660156 358.699219 L 387.761719 360.9375 C 388.644531 362.738281 389.09375 363.425781 390.160156 364.5625 C 392.773438 367.359375 394.234375 368.222656 406.554688 374.246094 C 418.207031 379.929688 432.023438 386.910156 435.503906 388.839844 C 438.714844 390.625 441.132812 392.085938 449.664062 397.40625 C 453.179688 399.609375 458.375 402.765625 461.207031 404.441406 C 470.441406 409.886719 476.519531 413.800781 482.492188 418.167969 C 489.148438 423.019531 496.703125 428.140625 498.796875 429.1875 C 500.492188 430.054688 501.484375 430.324219 502.871094 430.324219 C 503.863281 430.324219 504.082031 430.378906 504.28125 430.703125 C 504.40625 430.902344 505.019531 431.316406 505.632812 431.605469 C 507.921875 432.6875 511.167969 432.199219 516.113281 430.035156 C 520.207031 428.25 523.253906 426.339844 529.820312 421.433594 C 535.375 417.265625 537.9375 415.589844 541.742188 413.605469 C 543.4375 412.71875 545.296875 411.65625 545.890625 411.257812 C 547.136719 410.410156 549.246094 408.285156 550.113281 406.984375 C 554.007812 401.285156 557.921875 385.125 559.238281 369.449219 C 560.015625 360.144531 560.230469 348.128906 559.871094 333.519531 C 559.636719 322.949219 559.726562 319.9375 560.519531 313.535156 C 561.113281 308.808594 561.527344 302.910156 561.332031 302.046875 C 561.003906 300.65625 560.265625 299.898438 558.789062 299.464844 C 558.535156 299.394531 558.011719 299.140625 557.613281 298.925781 C 555.414062 297.664062 552.566406 297.300781 542.355469 296.941406 C 531.207031 296.5625 522.605469 296.039062 512.882812 295.136719 C 507.273438 294.613281 488.75 292.503906 482.726562 291.710938 C 479.371094 291.277344 474.878906 290.699219 472.75 290.449219 C 470.621094 290.195312 468.855469 289.960938 468.820312 289.925781 C 468.78125 289.890625 468.835938 289.546875 468.945312 289.167969 C 469.234375 288.050781 470.53125 278.488281 470.855469 275.117188 C 471.453125 268.714844 471.902344 265.59375 472.839844 260.867188 C 474.03125 254.914062 474.195312 253.671875 474.195312 250.316406 C 474.195312 247.359375 473.636719 240.359375 473.203125 237.851562 C 472.824219 235.707031 471.992188 232.496094 471.433594 231.015625 C 470.585938 228.78125 468.78125 225.441406 468.1875 224.992188 C 467.304688 224.324219 466.277344 223.964844 464.996094 223.875 C 463.460938 223.746094 459.457031 224.433594 456.03125 225.40625 C 454.640625 225.804688 451.144531 226.667969 448.273438 227.320312 C 445.425781 227.984375 441.546875 228.871094 439.652344 229.300781 C 434.117188 230.582031 431.410156 231.140625 423.691406 232.550781 C 419.667969 233.289062 414.636719 234.207031 412.507812 234.605469 C 405.472656 235.902344 399.234375 236.644531 389.601562 237.328125 C 378.203125 238.140625 373.152344 238.574219 355.871094 240.214844 C 345.320312 241.207031 341.621094 241.53125 335.851562 241.929688 C 330.546875 242.289062 323.800781 242.882812 322.324219 243.117188 C 320.410156 243.40625 318.878906 243.949219 316.660156 245.066406 C 313.792969 246.527344 309.011719 249.773438 304.59375 253.253906 C 302.519531 254.914062 302.066406 255.367188 301.671875 256.175781 C 301.09375 257.351562 300.625 259.855469 300.769531 260.941406 L 300.894531 261.734375 L 300.371094 261.625 C 299.507812 261.445312 291.101562 260.128906 280.566406 258.523438 C 264.386719 256.050781 259.519531 255.1875 252.699219 253.632812 C 245.125 251.902344 235.386719 249.015625 235.386719 248.53125 C 235.386719 248.257812 236.234375 247.628906 237.042969 247.265625 C 238.992188 246.4375 245 245.375 252.429688 244.542969 C 257.605469 243.949219 260.042969 243.625 266.226562 242.648438 C 268.355469 242.308594 272.738281 241.695312 275.96875 241.296875 C 282.804688 240.429688 287.113281 239.691406 292.742188 238.410156 C 294.980469 237.90625 299.074219 237.003906 301.851562 236.410156 C 304.628906 235.8125 309.335938 234.769531 312.3125 234.082031 C 318.265625 232.730469 318.390625 232.710938 330.347656 231.738281 C 338.863281 231.050781 341.191406 230.816406 351.09375 229.753906 C 355.566406 229.265625 362.78125 228.492188 367.144531 228.039062 C 378.183594 226.886719 380.871094 226.507812 383.46875 225.675781 C 386.984375 224.578125 387.921875 223.042969 388.105469 218.121094 C 388.285156 213.304688 387.492188 210.867188 384.929688 208.289062 C 381.828125 205.167969 378.527344 203.417969 367.957031 199.269531 C 360.003906 196.152344 357.675781 195.121094 349.199219 190.972656 C 342.46875 187.671875 339.621094 186.375 335.761719 184.839844 C 324.957031 180.511719 311.375 176.796875 298.894531 174.742188 C 293.5 173.855469 276.417969 171.820312 267.308594 170.972656 C 257.605469 170.070312 240.976562 169.203125 224.832031 168.789062 C 215.742188 168.554688 210.078125 168.335938 201.296875 167.867188 C 193.503906 167.4375 175.375 167.253906 169.1875 167.542969 Z M 191.914062 171.496094 C 195.542969 171.601562 201.945312 171.835938 206.164062 172.035156 C 214.121094 172.394531 221.441406 172.667969 228.261719 172.847656 C 241.046875 173.191406 257.929688 174.019531 266.5 174.742188 C 272.433594 175.246094 279.574219 176.039062 279.574219 176.203125 C 279.574219 176.273438 277.609375 177.824219 275.210938 179.664062 C 269.636719 183.921875 267.996094 185.292969 264.820312 188.375 C 262.621094 190.523438 262.261719 190.957031 262.261719 191.425781 C 262.261719 191.714844 262.332031 192.09375 262.441406 192.238281 C 262.800781 192.8125 263.9375 192.003906 271.910156 185.382812 C 277.03125 181.125 279.972656 178.546875 281.523438 176.976562 C 281.847656 176.636719 282.171875 176.363281 282.226562 176.363281 C 282.675781 176.363281 294.023438 177.734375 296.53125 178.097656 C 306.304688 179.484375 316.949219 182.011719 325.984375 185.058594 L 327.769531 185.671875 L 324.488281 187.621094 C 322.683594 188.683594 320.230469 190.214844 319.023438 191.011719 C 316.40625 192.742188 310.023438 197.269531 309.824219 197.539062 C 309.75 197.648438 309.714844 198.097656 309.734375 198.550781 C 309.769531 199.125 309.878906 199.378906 310.09375 199.414062 C 310.796875 199.542969 315.738281 196.765625 320.96875 193.265625 C 325.171875 190.449219 329.355469 187.292969 329.355469 186.914062 C 329.375 186.230469 329.683594 186.285156 332.515625 187.367188 C 336.175781 188.753906 339.890625 190.34375 342.613281 191.660156 L 344.761719 192.707031 L 342.523438 193.894531 C 336.535156 197.050781 329.554688 201.253906 325.964844 203.835938 C 323.117188 205.871094 323.042969 205.945312 323.042969 206.902344 C 323.042969 207.332031 323.152344 207.820312 323.277344 207.984375 C 323.476562 208.273438 323.566406 208.273438 324.234375 208.054688 C 326.34375 207.296875 333.722656 202.933594 343.425781 196.710938 C 345.355469 195.464844 347.105469 194.402344 347.320312 194.328125 C 347.574219 194.257812 348.730469 194.707031 351.164062 195.84375 C 355.800781 198.027344 359.40625 199.542969 365.773438 201.976562 C 374.195312 205.207031 376.9375 206.539062 378.867188 208.398438 C 380.582031 210.039062 381.125 211.644531 381.125 215.109375 C 381.105469 218.789062 380.472656 221.402344 379.464844 221.800781 C 379.230469 221.90625 377.40625 222.070312 375.40625 222.179688 C 373.421875 222.285156 370.121094 222.558594 368.101562 222.808594 C 366.097656 223.042969 362.582031 223.40625 360.289062 223.621094 C 354.375 224.164062 347.375 224.972656 341.53125 225.785156 C 338.753906 226.183594 334.335938 226.796875 331.703125 227.136719 C 324.179688 228.148438 318.984375 228.976562 314.207031 229.933594 C 310.90625 230.601562 307.660156 231.070312 301.308594 231.828125 C 287.765625 233.449219 283.019531 234.207031 271.207031 236.625 C 262.207031 238.484375 254.433594 239.980469 252.789062 240.195312 C 251.996094 240.304688 249.527344 240.59375 247.289062 240.847656 C 240.902344 241.550781 235.132812 242.558594 232.410156 243.40625 C 226.367188 245.300781 225.988281 248.367188 231.453125 251.144531 C 233.167969 252.011719 234.519531 252.5 239.535156 254.03125 C 252.175781 257.925781 260.582031 259.570312 287.601562 263.484375 C 303.167969 265.738281 308.523438 266.730469 316.640625 268.820312 C 335.816406 273.765625 340.015625 274.683594 351.542969 276.453125 C 357.875 277.425781 357.421875 277.316406 357.007812 277.769531 C 356.46875 278.363281 353.921875 279.988281 351.992188 280.941406 C 348.386719 282.746094 340.414062 285.558594 332.226562 287.921875 C 318.515625 291.910156 293.175781 297.5 281.253906 299.195312 C 267.363281 301.160156 231.289062 304.949219 218.699219 305.761719 C 203.207031 306.769531 193.863281 306.699219 183.65625 305.492188 L 180.355469 305.09375 L 182.230469 303.183594 C 184.375 300.980469 186.035156 299.050781 190.023438 294.144531 C 191.589844 292.214844 194.53125 288.664062 196.550781 286.246094 C 200.519531 281.519531 202.992188 278.308594 203.730469 276.902344 L 204.199219 276.019531 L 203.800781 275.710938 C 202.898438 274.972656 202.59375 275.171875 199.726562 278.308594 C 198.265625 279.933594 195.792969 282.582031 194.261719 284.226562 C 188.632812 290.214844 179.453125 300.296875 177.539062 302.605469 C 176.910156 303.34375 176.402344 304.066406 176.402344 304.210938 C 176.402344 304.425781 176.207031 304.445312 175.285156 304.355469 C 172.722656 304.066406 163.253906 302.371094 157.105469 301.109375 C 149.023438 299.429688 143.433594 298.402344 135.910156 297.210938 C 128.425781 296.039062 122.601562 295.027344 122.4375 294.886719 C 122.367188 294.8125 123.085938 294.054688 124.0625 293.207031 C 125.703125 291.765625 127.9375 289.328125 128.695312 288.15625 C 129.328125 287.148438 128.371094 286.496094 127.144531 287.109375 C 126.371094 287.527344 122.417969 290.449219 119.769531 292.59375 C 118.199219 293.875 118 293.984375 117.421875 293.894531 C 116.449219 293.730469 112.121094 292.523438 111.957031 292.359375 C 111.886719 292.289062 112.425781 291.765625 113.167969 291.1875 C 117.40625 288.011719 122.472656 283.339844 122.472656 282.636719 C 122.472656 282.167969 121.480469 281.339844 120.957031 281.339844 C 120.058594 281.339844 111.164062 287.417969 108.476562 289.851562 L 107.46875 290.773438 L 106.816406 290.539062 C 105.285156 289.996094 102.398438 288.535156 102.5625 288.390625 C 103.335938 287.6875 110.0625 282.152344 112.734375 280.003906 C 114.574219 278.527344 116.144531 277.261719 116.214844 277.191406 C 116.46875 276.957031 116.035156 276.359375 115.4375 276.109375 C 114.644531 275.785156 113.816406 276.054688 111.289062 277.496094 C 107.46875 279.679688 103.15625 282.691406 100.160156 285.308594 L 98.664062 286.605469 L 95.5625 284.945312 C 93.847656 284.042969 92.371094 283.234375 92.296875 283.144531 C 92.207031 283.070312 92.585938 282.691406 93.109375 282.3125 C 96.429688 279.878906 103.046875 273.726562 103.714844 272.429688 C 103.96875 271.960938 103.949219 271.90625 103.554688 271.582031 C 102.5625 270.769531 102.507812 270.804688 94.191406 277.046875 L 88.527344 281.285156 L 86.253906 280.257812 C 84.992188 279.679688 83.566406 279.046875 83.082031 278.832031 L 82.214844 278.453125 L 83.621094 277.40625 C 85.824219 275.765625 90.242188 271.925781 92.621094 269.578125 C 93.8125 268.40625 94.878906 267.449219 95.003906 267.449219 C 95.417969 267.449219 95.253906 266.945312 94.679688 266.476562 C 94.046875 265.9375 93.46875 265.882812 92.660156 266.316406 C 91.957031 266.675781 86.238281 270.644531 83.785156 272.464844 C 82.792969 273.222656 81.242188 274.558594 80.355469 275.460938 L 78.734375 277.101562 L 76.625 276.378906 C 75.46875 275.980469 74.460938 275.601562 74.40625 275.53125 C 74.351562 275.476562 74.964844 274.953125 75.792969 274.378906 C 76.625 273.800781 79.527344 271.652344 82.25 269.597656 C 86.976562 266.0625 88.925781 264.347656 88.925781 263.769531 C 88.925781 263.390625 87.878906 262.582031 87.375 262.582031 C 86.851562 262.582031 79.023438 267.234375 75.234375 269.796875 C 73.792969 270.769531 71.917969 272.121094 71.066406 272.808594 L 69.554688 274.050781 L 67.011719 273.277344 C 65.621094 272.84375 64.375 272.464844 64.230469 272.410156 C 64.070312 272.339844 64.792969 271.851562 66.035156 271.167969 C 68.398438 269.867188 71.050781 268.191406 76.496094 264.546875 C 82.089844 260.832031 82.972656 260.144531 82.972656 259.585938 C 82.972656 259.242188 82.828125 259.082031 82.339844 258.882812 C 81.78125 258.628906 81.636719 258.648438 80.683594 259.007812 C 77.273438 260.273438 65.765625 266.890625 61.832031 269.832031 C 60.949219 270.515625 60.121094 271.058594 60.011719 271.058594 C 59.703125 271.058594 55.917969 269.722656 55.917969 269.617188 C 55.917969 269.5625 56.367188 269.289062 56.910156 269.003906 C 58.28125 268.296875 60.824219 266.511719 66.214844 262.542969 C 68.742188 260.667969 72.097656 258.234375 73.683594 257.117188 C 75.269531 255.980469 76.585938 254.933594 76.625 254.769531 C 76.660156 254.589844 76.496094 254.390625 76.226562 254.265625 C 75.613281 253.976562 74.027344 254.554688 70.507812 256.339844 C 66.882812 258.160156 64.125 259.855469 57.578125 264.257812 L 51.929688 268.046875 L 50.6875 267.199219 C 49.0625 266.078125 48.847656 265.828125 49.550781 265.828125 C 50.507812 265.828125 53.355469 263.824219 56.566406 260.921875 C 57.378906 260.199219 59.234375 258.503906 60.714844 257.167969 C 63.492188 254.664062 66.398438 252.226562 68.253906 250.855469 L 69.320312 250.082031 L 68.8125 249.628906 C 68.109375 249.035156 67.371094 249.160156 65.0625 250.28125 C 60.894531 252.316406 54.726562 256.972656 49.75 261.824219 L 47.457031 264.058594 L 46.84375 262.816406 C 46.230469 261.625 45.601562 259.714844 45.382812 258.46875 L 45.277344 257.855469 L 45.890625 258.394531 C 46.230469 258.683594 46.808594 259.027344 47.167969 259.152344 C 47.765625 259.351562 47.890625 259.335938 48.578125 258.882812 C 48.992188 258.613281 51.210938 256.503906 53.5 254.175781 C 55.789062 251.847656 57.792969 249.953125 57.957031 249.953125 C 58.136719 249.953125 58.261719 249.863281 58.261719 249.757812 C 58.261719 249.304688 57.847656 248.890625 57.109375 248.601562 C 56.367188 248.3125 56.222656 248.3125 55.484375 248.566406 C 53.808594 249.144531 49.710938 252.191406 46.863281 255.003906 L 45.277344 256.554688 L 45.277344 254.859375 C 45.277344 250.765625 46.808594 243.914062 49.515625 235.902344 C 53.914062 222.898438 58.515625 215.34375 66.8125 207.585938 C 79.941406 195.320312 99.0625 186.210938 127.253906 178.816406 C 141.015625 175.210938 152.089844 173.152344 162.335938 172.324219 C 168.125 171.835938 172.039062 171.675781 184.339844 171.351562 C 184.882812 171.332031 188.289062 171.402344 191.914062 171.496094 Z M 466.691406 226.363281 C 467.882812 228.402344 469.199219 232.980469 469.757812 237.058594 C 470.460938 241.984375 470.765625 249.71875 470.40625 252.390625 C 470.097656 254.574219 469.304688 257.730469 469.109375 257.601562 C 468.765625 257.386719 459.746094 257.53125 457.058594 257.800781 C 455.617188 257.925781 453.503906 258.089844 452.371094 258.160156 C 451.234375 258.214844 449.355469 258.34375 448.222656 258.433594 C 447.085938 258.539062 443.835938 258.738281 441.007812 258.882812 C 438.175781 259.027344 434.40625 259.226562 432.617188 259.316406 C 419.8125 260.019531 393.929688 260.34375 386.265625 259.910156 C 378.398438 259.441406 375.550781 259.152344 365.613281 257.691406 C 352.28125 255.761719 350.855469 255.457031 338.828125 251.847656 C 335.058594 250.710938 331.324219 249.628906 330.53125 249.433594 C 325.515625 248.152344 321.746094 248.167969 316.335938 249.523438 C 315.378906 249.757812 314.40625 250.027344 314.171875 250.117188 C 313.9375 250.207031 313.324219 250.441406 312.800781 250.660156 C 312.277344 250.875 311.878906 250.964844 311.933594 250.875 C 312.003906 250.785156 313.035156 250.046875 314.222656 249.25 C 316.929688 247.449219 320.71875 245.554688 322.539062 245.085938 C 324.109375 244.6875 328.707031 244.238281 337.746094 243.550781 C 342.792969 243.171875 351.832031 242.363281 366.695312 240.9375 C 372.734375 240.359375 381.574219 239.675781 391.40625 239.042969 C 402.804688 238.304688 407.855469 237.636719 422.066406 235.054688 C 431.914062 233.269531 434.53125 232.746094 439.742188 231.558594 C 441.871094 231.070312 446.183594 230.097656 449.304688 229.394531 C 452.421875 228.6875 456.285156 227.75 457.871094 227.28125 C 461.136719 226.34375 464.363281 225.640625 465.480469 225.625 C 466.1875 225.605469 466.277344 225.660156 466.691406 226.363281 Z M 329.175781 251.46875 C 330.78125 251.792969 340.738281 254.679688 345.265625 256.140625 L 345.933594 256.359375 L 342.667969 258.433594 C 337.042969 262.023438 333.34375 264.78125 330.800781 267.289062 L 329.5 268.585938 L 325.859375 267.632812 C 323.875 267.109375 322.125 266.621094 322 266.566406 C 321.855469 266.476562 323.476562 264.746094 326.5625 261.679688 C 329.195312 259.046875 331.339844 256.808594 331.339844 256.699219 C 331.339844 256.609375 331.234375 256.375 331.105469 256.195312 C 330.871094 255.871094 330.835938 255.890625 330.152344 256.230469 C 328.203125 257.222656 321.582031 262.777344 319.617188 265.050781 L 318.984375 265.792969 L 316.136719 265.035156 L 313.285156 264.277344 L 315.683594 262.582031 C 318.824219 260.34375 320.429688 259.0625 321.671875 257.78125 C 322.808594 256.628906 322.917969 256.195312 322.269531 255.4375 L 321.835938 254.953125 L 321.132812 255.367188 C 319.058594 256.628906 311.445312 261.769531 310.527344 262.527344 L 309.460938 263.390625 L 306.234375 262.742188 C 304.464844 262.382812 302.953125 262.039062 302.898438 261.984375 C 302.84375 261.929688 302.953125 260.941406 303.113281 259.785156 L 303.4375 257.691406 L 305.710938 256.59375 C 308.777344 255.132812 312.527344 253.527344 314.675781 252.785156 C 319.5625 251.089844 324.921875 250.605469 329.175781 251.46875 Z M 350.660156 257.511719 C 351.886719 257.800781 353.636719 258.179688 354.519531 258.34375 C 355.421875 258.503906 356.25 258.683594 356.375 258.722656 C 356.519531 258.757812 355.492188 259.640625 354.105469 260.6875 C 351.308594 262.761719 349.449219 264.402344 349.289062 264.925781 C 349.160156 265.324219 349.648438 266.367188 349.972656 266.367188 C 350.515625 266.351562 354.734375 263.066406 357.277344 260.6875 L 358.902344 259.152344 L 362.707031 259.75 C 364.855469 260.074219 366.496094 260.417969 366.476562 260.507812 C 366.441406 260.613281 365.808594 261.175781 365.070312 261.75 C 364.332031 262.347656 363.195312 263.285156 362.546875 263.84375 C 358.019531 267.777344 354.699219 270.75 353.597656 271.816406 L 352.316406 273.058594 L 349.269531 272.589844 C 343.425781 271.691406 333.722656 269.757812 332.53125 269.289062 C 332.261719 269.164062 332.621094 268.804688 334.695312 267.144531 C 336.824219 265.449219 346.382812 258.253906 347.753906 257.296875 C 347.988281 257.132812 348.242188 256.988281 348.3125 256.988281 C 348.386719 256.988281 349.433594 257.222656 350.660156 257.511719 Z M 464.90625 260.398438 C 464.796875 260.488281 462.578125 262.113281 459.945312 264.023438 C 454.515625 267.972656 448.257812 272.753906 446.578125 274.234375 C 444.488281 276.109375 444.179688 276.703125 444.792969 277.679688 C 444.992188 278.019531 445.296875 278.273438 445.496094 278.273438 C 446.21875 278.273438 449.464844 275.875 455.707031 270.699219 C 457.09375 269.542969 459.855469 267.324219 461.839844 265.738281 C 463.824219 264.167969 466.148438 262.273438 467.035156 261.550781 C 467.898438 260.8125 468.601562 260.289062 468.601562 260.398438 C 468.601562 260.488281 468.476562 261.175781 468.332031 261.894531 C 468.117188 262.871094 467.339844 268.335938 467.339844 268.785156 C 467.339844 268.875 465.96875 269.742188 462.019531 272.195312 C 458.59375 274.304688 458.140625 274.683594 458.140625 275.511719 C 458.140625 276.34375 458.988281 277.28125 459.601562 277.136719 C 460.234375 276.972656 462.957031 275.117188 465.175781 273.332031 C 466.222656 272.5 467.085938 271.832031 467.125 271.871094 C 467.320312 272.066406 466.457031 282.078125 465.859375 286.605469 C 465.699219 287.796875 465.699219 288.355469 465.859375 288.859375 C 465.96875 289.222656 466.042969 289.5625 466.003906 289.601562 C 465.859375 289.746094 445.082031 287.238281 440.105469 286.460938 C 436.351562 285.882812 412.90625 281.988281 410.253906 281.5 C 409.171875 281.304688 405.832031 280.671875 402.859375 280.078125 C 394.847656 278.488281 393.191406 278.273438 385.902344 277.804688 C 379.570312 277.390625 379.246094 277.390625 378.796875 277.804688 C 378.453125 278.109375 378.417969 278.34375 378.417969 280.148438 C 378.417969 281.25 378.488281 283.035156 378.582031 284.136719 C 378.996094 288.988281 378.90625 295.335938 378.238281 307.402344 C 377.914062 313.320312 377.804688 323.273438 378.039062 325.257812 C 378.328125 327.53125 378.976562 330.652344 379.679688 333.105469 C 380.277344 335.179688 380.691406 338.066406 380.511719 338.804688 L 380.382812 339.292969 L 374.484375 339.183594 C 371.238281 339.113281 367.777344 339.003906 366.800781 338.929688 L 365.015625 338.824219 L 365.144531 332.132812 C 365.394531 318.511719 365.71875 316.023438 368.695312 305.09375 C 370.859375 297.105469 371.257812 295.011719 371.273438 291.621094 C 371.292969 288.429688 371.023438 286.929688 369.996094 284.40625 C 369.054688 282.113281 367.503906 279.769531 365.160156 277.082031 C 363.953125 275.675781 361.175781 274.519531 357.351562 273.835938 C 356.339844 273.65625 355.527344 273.457031 355.546875 273.386719 C 355.582031 273.332031 356.359375 272.644531 357.277344 271.886719 C 359.082031 270.390625 360.976562 268.625 365.9375 263.769531 L 369.074219 260.722656 L 369.90625 260.832031 C 375.28125 261.515625 378.164062 261.859375 379.175781 261.949219 L 380.382812 262.074219 L 378.632812 263.375 C 376.054688 265.304688 370.988281 269.472656 370.425781 270.136719 C 369.742188 270.96875 369.832031 272.121094 370.660156 272.644531 C 370.933594 272.808594 371.132812 272.753906 371.78125 272.285156 C 373.097656 271.347656 375.28125 269.453125 379.050781 266.027344 C 381.03125 264.203125 382.820312 262.636719 383.015625 262.507812 C 383.289062 262.347656 384.171875 262.328125 386.769531 262.472656 C 388.625 262.5625 390.140625 262.707031 390.140625 262.777344 C 390.140625 262.851562 388.664062 264.148438 386.859375 265.664062 C 382.675781 269.183594 380.761719 271.09375 380.761719 271.761719 C 380.761719 272.445312 381.339844 272.953125 381.808594 272.699219 C 382.746094 272.195312 389.402344 266.441406 391.332031 264.4375 L 392.957031 262.761719 L 396.417969 262.761719 C 398.332031 262.761719 399.882812 262.832031 399.882812 262.90625 C 399.882812 262.996094 398.691406 264.113281 397.230469 265.375 C 393.804688 268.371094 391.621094 270.480469 391.296875 271.09375 C 391.0625 271.527344 391.078125 271.671875 391.296875 272.230469 C 391.457031 272.628906 391.691406 272.863281 391.890625 272.863281 C 392.304688 272.863281 393.660156 271.691406 398.167969 267.398438 C 400.152344 265.519531 402.101562 263.71875 402.496094 263.390625 L 403.21875 262.796875 L 407.691406 262.726562 C 410.144531 262.707031 412.148438 262.707031 412.128906 262.761719 C 412.128906 262.816406 411.027344 263.734375 409.675781 264.835938 C 406.285156 267.59375 404.570312 269.273438 404.570312 269.8125 C 404.570312 270.515625 405.222656 271.417969 405.726562 271.417969 C 405.960938 271.417969 406.683594 271.039062 407.3125 270.570312 C 408.46875 269.6875 413.046875 265.230469 414.507812 263.554688 L 415.304688 262.636719 L 423.511719 262.417969 C 428.019531 262.308594 432.332031 262.164062 433.070312 262.09375 C 433.808594 262.039062 434.386719 262.023438 434.332031 262.074219 C 434.277344 262.128906 432.546875 263.320312 430.453125 264.746094 C 426.109375 267.722656 422.84375 270.15625 421.4375 271.492188 C 420.300781 272.554688 420.191406 273.078125 420.875 273.871094 L 421.292969 274.378906 L 422.140625 273.871094 C 422.609375 273.601562 423.402344 273.042969 423.925781 272.609375 C 425.890625 271.023438 429.679688 268.152344 432.710938 265.972656 C 434.441406 264.726562 436.371094 263.300781 437 262.796875 C 438.300781 261.75 438.320312 261.75 442.71875 261.570312 C 444.308594 261.515625 446.777344 261.355469 448.222656 261.226562 C 449.664062 261.101562 450.855469 261.011719 450.890625 261.046875 C 450.910156 261.066406 449.449219 262.003906 447.644531 263.121094 C 442.738281 266.152344 434.925781 271.707031 432.636719 273.78125 L 431.769531 274.574219 L 432.042969 275.261719 C 432.203125 275.640625 432.511719 276 432.746094 276.089844 C 433.648438 276.414062 434.476562 275.929688 440.484375 271.472656 C 442.609375 269.886719 446.453125 267.109375 449.03125 265.285156 C 451.613281 263.464844 454.117188 261.679688 454.585938 261.335938 C 455.417969 260.722656 455.542969 260.6875 457.652344 260.488281 C 460.414062 260.234375 465.121094 260.183594 464.90625 260.398438 Z M 46.878906 269.074219 C 49.855469 270.914062 54.09375 272.539062 63.945312 275.640625 C 77.832031 279.988281 81.511719 281.5 92.621094 287.382812 C 102.234375 292.46875 106.4375 294.234375 113.527344 296.148438 C 115.023438 296.5625 116.519531 297.050781 116.847656 297.246094 C 117.261719 297.5 117.605469 297.574219 117.980469 297.5 C 118.289062 297.445312 119.984375 297.699219 122.078125 298.113281 C 125.972656 298.871094 128.839844 299.375 138.707031 301 C 144.695312 301.972656 148.320312 302.675781 161.9375 305.492188 C 172.632812 307.691406 186.378906 309.675781 194.441406 310.179688 C 203.730469 310.757812 216.390625 310.46875 229.433594 309.367188 C 234.878906 308.917969 261.71875 306.285156 267.851562 305.582031 C 286.304688 303.523438 293.140625 302.460938 308.074219 299.359375 C 317.992188 297.300781 328.113281 294.886719 336.140625 292.667969 L 338.320312 292.054688 L 338.429688 293.441406 C 338.503906 294.21875 338.878906 296.363281 339.277344 298.238281 C 339.691406 300.097656 340.304688 302.894531 340.628906 304.425781 C 341.929688 310.378906 342.324219 314.402344 342.453125 323.273438 C 342.578125 331.898438 342.777344 333.410156 343.894531 334.023438 C 344.328125 334.257812 345.320312 334.332031 345.519531 334.152344 C 345.679688 333.988281 346.113281 331.265625 346.332031 328.992188 C 346.582031 326.378906 346.4375 319.378906 346.042969 315.96875 C 345.445312 310.648438 344.597656 306.84375 342.179688 298.382812 C 340.503906 292.484375 340.46875 292.394531 339.964844 291.980469 C 339.566406 291.675781 339.566406 291.65625 340.648438 291.351562 C 343.425781 290.554688 349.902344 288.429688 352.695312 287.398438 C 357.65625 285.558594 360.507812 284.226562 363.140625 282.476562 C 363.808594 282.023438 364.402344 281.683594 364.421875 281.71875 C 364.621094 281.933594 365.429688 284.890625 365.613281 286.082031 C 366.007812 288.519531 365.664062 291.910156 364.691406 295.316406 C 364.492188 296.003906 363.464844 299.214844 362.4375 302.441406 C 359.804688 310.578125 359.082031 313.625 358.503906 319.035156 C 357.476562 328.558594 357.566406 340.410156 358.757812 352.40625 C 359.335938 358.210938 359.460938 359.835938 359.75 365.210938 C 360.039062 370.695312 360.273438 372.605469 361.011719 375.871094 C 361.699219 378.882812 361.769531 380.109375 361.320312 381.121094 C 360.652344 382.632812 359.171875 383.195312 353.09375 384.148438 C 351.199219 384.457031 346.527344 385.230469 342.703125 385.863281 C 338.878906 386.496094 333.089844 387.433594 329.808594 387.9375 C 326.542969 388.441406 322.035156 389.183594 319.796875 389.578125 C 314.207031 390.589844 297.8125 393.90625 293.589844 394.882812 C 286.195312 396.578125 259.574219 403.179688 258.652344 403.523438 C 258.417969 403.613281 258.382812 402.78125 258.347656 396.828125 C 258.308594 393.078125 258.203125 386.476562 258.074219 382.164062 C 257.949219 377.691406 257.894531 369.828125 257.949219 363.859375 C 258.058594 348.597656 258.003906 341.945312 257.679688 334.457031 C 257.246094 324.59375 256.902344 320.316406 256.46875 319.179688 C 256.273438 318.710938 255.53125 318.316406 254.828125 318.316406 C 254.054688 318.316406 254 319.308594 253.871094 334.730469 C 253.800781 341.222656 253.636719 348.816406 253.492188 351.59375 C 252.933594 362.59375 252.84375 366.347656 252.953125 372.695312 C 253.113281 383.140625 253.476562 390.410156 254.160156 397.859375 C 254.648438 403.105469 254.628906 403.070312 255.332031 403.738281 L 255.929688 404.316406 L 251.835938 405.414062 C 242.4375 407.941406 234.464844 409.402344 227.269531 409.925781 C 223.679688 410.195312 220.34375 410.285156 205.210938 410.574219 C 184.230469 410.988281 180.660156 410.933594 175.140625 410.195312 C 171.839844 409.761719 169.296875 409.132812 163.976562 407.398438 C 154.054688 404.1875 150.25 403.484375 137.445312 402.457031 C 115.765625 400.726562 106.132812 398.652344 95.148438 393.347656 C 85.535156 388.695312 79.761719 382.996094 67.820312 366.382812 C 65.910156 363.695312 63.382812 360.25 62.210938 358.71875 C 56.890625 351.609375 52.632812 344.414062 51.15625 339.960938 C 50.019531 336.53125 49.875 335.484375 49.875 330.671875 C 49.875 324.484375 50.289062 322.101562 52.960938 312.777344 C 56.875 298.996094 57.035156 294.722656 53.808594 288.285156 C 53.265625 287.183594 52.742188 286.210938 52.671875 286.117188 C 52.292969 285.648438 50.253906 281.355469 49.425781 279.265625 C 48.523438 277.027344 46.160156 270.085938 45.925781 269.019531 C 45.851562 268.75 45.851562 268.53125 45.90625 268.53125 C 45.941406 268.53125 46.394531 268.785156 46.878906 269.074219 Z M 385.453125 283.324219 C 387.183594 284.332031 390.429688 286.371094 392.667969 287.832031 C 398.800781 291.855469 401.613281 293.40625 408.628906 296.671875 C 410.921875 297.71875 414.257812 299.359375 416.078125 300.296875 L 419.363281 302.027344 L 416.441406 303.164062 C 413.121094 304.445312 410.398438 305.761719 409.40625 306.589844 C 408.558594 307.292969 408.519531 307.855469 409.242188 308.574219 C 409.695312 309.042969 409.820312 309.078125 410.453125 308.9375 C 412.273438 308.519531 416.960938 306.339844 420.027344 304.480469 L 421.976562 303.308594 L 425.585938 305.148438 C 427.570312 306.175781 429.265625 307.058594 429.335938 307.132812 C 429.425781 307.203125 429.066406 307.476562 428.523438 307.710938 C 426.539062 308.628906 418.710938 312.957031 418.242188 313.410156 C 417.667969 313.949219 417.59375 314.597656 418.046875 315.25 C 418.53125 315.953125 418.855469 316.132812 419.597656 316.152344 C 420.515625 316.152344 420.984375 315.878906 424.035156 313.660156 C 427.621094 311.046875 429.316406 309.929688 430.960938 309.117188 C 432.347656 308.414062 432.382812 308.414062 433.035156 308.683594 C 433.394531 308.828125 435.449219 309.621094 437.578125 310.414062 C 443.855469 312.757812 445.550781 313.734375 449.484375 317.125 C 454.679688 321.617188 458.789062 324.050781 462.777344 325.007812 C 464.6875 325.457031 468.710938 325.890625 471.21875 325.890625 L 473.203125 325.890625 L 471.488281 326.71875 C 468.1875 328.289062 465.066406 330.707031 462.957031 333.320312 C 462.234375 334.207031 462.21875 334.511719 462.902344 335.070312 C 463.371094 335.46875 463.984375 335.160156 466.203125 333.484375 C 471.183594 329.75 473.003906 328.867188 479.117188 327.242188 L 482.347656 326.394531 L 486.332031 327.152344 C 488.535156 327.566406 491.761719 328.144531 493.492188 328.453125 C 495.226562 328.742188 496.777344 329.027344 496.921875 329.082031 C 497.066406 329.136719 496.34375 329.300781 495.296875 329.425781 C 489.542969 330.183594 486.261719 331.246094 482.003906 333.773438 C 481.101562 334.3125 479.40625 335.25 478.234375 335.863281 C 477.078125 336.476562 476.035156 337.128906 475.925781 337.289062 C 475.636719 337.757812 476.324219 338.589844 477.042969 338.660156 C 477.875 338.75 479.765625 337.867188 483.050781 335.902344 C 486.511719 333.808594 488.0625 333.105469 490.824219 332.402344 C 493.421875 331.734375 495.964844 331.375 500.078125 331.121094 C 504.800781 330.832031 504.855469 330.832031 504.855469 330.957031 C 504.855469 331.300781 501.664062 333.175781 497.371094 335.324219 C 492.84375 337.597656 490.824219 338.824219 488.300781 340.824219 C 487.378906 341.566406 487.324219 342.035156 488.082031 342.84375 C 488.605469 343.421875 488.675781 343.441406 489.667969 343.332031 C 491.796875 343.097656 495.910156 341.382812 500.257812 338.878906 C 505.921875 335.628906 508.300781 333.214844 508.050781 330.996094 C 507.941406 330.019531 507.238281 328.957031 506.335938 328.453125 C 505.453125 327.964844 500.816406 326.917969 497.460938 326.449219 C 496.019531 326.25 492.699219 325.765625 490.066406 325.367188 C 487.433594 324.96875 484.816406 324.609375 484.242188 324.539062 C 483.410156 324.449219 483.140625 324.339844 482.90625 323.980469 C 482.292969 323.023438 482.183594 323.003906 473.527344 322.824219 C 465.085938 322.644531 463.335938 322.519531 460.9375 321.921875 C 459.296875 321.507812 456.15625 320.011719 454.191406 318.730469 C 452.984375 317.917969 446.777344 312.867188 446.867188 312.777344 C 446.886719 312.742188 447.390625 312.921875 448.003906 313.175781 C 448.617188 313.425781 450.023438 313.878906 451.144531 314.183594 C 452.261719 314.472656 454.480469 315.25 456.066406 315.878906 C 461.082031 317.882812 466.042969 318.496094 483.300781 319.308594 C 490.570312 319.648438 497.300781 320.785156 501.539062 322.375 C 504.351562 323.4375 507.472656 325.492188 508.300781 326.847656 C 508.480469 327.171875 508.933594 328.308594 509.292969 329.40625 C 509.636719 330.488281 510.125 331.714844 510.359375 332.132812 C 510.863281 332.996094 512.070312 334.132812 513.027344 334.636719 C 513.460938 334.871094 513.695312 335.125 513.695312 335.359375 C 513.695312 335.902344 513.207031 337.832031 512.863281 338.679688 C 512.578125 339.398438 512.558594 339.417969 511.730469 339.417969 C 510.648438 339.417969 508.589844 339.941406 506.875 340.664062 C 504.476562 341.65625 500.726562 344.144531 498.851562 345.964844 C 497.894531 346.902344 497.859375 347.226562 498.597656 348.023438 C 499.410156 348.921875 500.511719 348.527344 503.773438 346.183594 C 505.8125 344.738281 507.398438 343.746094 508.644531 343.167969 C 509.980469 342.539062 511.042969 342.125 511.117188 342.179688 C 511.152344 342.214844 510.933594 342.773438 510.648438 343.40625 C 509.90625 345.046875 508.859375 348.4375 508.554688 350.222656 C 508.050781 353.089844 508.285156 355.632812 509.277344 357.707031 C 509.800781 358.824219 510.863281 359.980469 511.351562 359.980469 C 511.820312 359.980469 511.945312 359.4375 511.800781 357.851562 C 511.53125 354.660156 512.59375 349.320312 514.398438 344.828125 C 515.914062 341.09375 516.21875 339.960938 516.347656 337.847656 C 516.4375 336.117188 516.417969 335.957031 515.96875 335.035156 C 515.410156 333.882812 514.273438 332.78125 512.972656 332.113281 C 512.46875 331.859375 512.015625 331.554688 511.980469 331.429688 C 511.3125 329.425781 510.339844 327.152344 509.761719 326.304688 C 507.707031 323.273438 503.574219 320.515625 498.976562 319.125 C 494.269531 317.703125 489.667969 317.015625 482.671875 316.691406 C 472.175781 316.222656 464.003906 315.644531 460.339844 315.140625 C 458.105469 314.832031 457.472656 314.652344 454.535156 313.480469 C 453.289062 312.976562 451.378906 312.328125 450.3125 312.003906 C 448.238281 311.40625 445.136719 310.109375 444.253906 309.476562 C 443.875 309.207031 443.296875 308.230469 442.285156 306.175781 C 441.3125 304.191406 440.535156 302.855469 439.851562 302.027344 C 436.949219 298.546875 432.945312 296.851562 428.742188 297.355469 C 426.722656 297.609375 423.257812 298.457031 421.398438 299.195312 L 420.066406 299.699219 L 414.582031 297.011719 C 411.550781 295.535156 408.179688 293.910156 407.058594 293.40625 C 401.648438 290.933594 397.394531 288.609375 392.414062 285.414062 C 390.519531 284.1875 388.011719 282.636719 386.859375 281.953125 C 385.703125 281.285156 384.765625 280.707031 384.785156 280.691406 C 384.855469 280.617188 391.097656 281.140625 392.667969 281.339844 C 395.265625 281.664062 398.113281 282.203125 404.03125 283.503906 C 412.164062 285.269531 415.917969 285.9375 433.609375 288.714844 C 444.992188 290.519531 449.105469 291.023438 465.789062 292.703125 C 470.75 293.191406 478.578125 294.054688 483.195312 294.597656 C 495.511719 296.039062 506.640625 297.175781 516.671875 298.023438 C 528.539062 299.015625 533.589844 299.285156 544.175781 299.554688 C 550.507812 299.71875 554.585938 299.933594 555.539062 300.167969 C 555.683594 300.207031 556.007812 300.296875 556.261719 300.351562 C 556.515625 300.40625 556.910156 300.691406 557.128906 300.980469 L 557.523438 301.523438 L 554.855469 303.488281 C 549.136719 307.746094 547.75 308.539062 536.78125 313.859375 C 535.25 314.597656 533.28125 315.71875 532.417969 316.332031 C 530.523438 317.683594 527.960938 320.28125 525.328125 323.546875 C 522.804688 326.683594 520.65625 328.8125 518.800781 330.039062 C 517.953125 330.597656 517.300781 331.15625 517.300781 331.320312 C 517.300781 331.480469 517.464844 331.753906 517.664062 331.933594 C 518.003906 332.238281 518.058594 332.238281 519.359375 331.769531 C 521.667969 330.921875 523.652344 329.390625 528.394531 324.808594 C 533.03125 320.300781 534.113281 319.558594 540.839844 316.203125 C 548.507812 312.378906 551.933594 310.089844 556.476562 305.726562 C 557.921875 304.355469 558.28125 304.082031 558.191406 304.445312 C 558.121094 304.695312 557.992188 306.25 557.886719 307.871094 C 557.777344 309.496094 557.542969 312.09375 557.34375 313.625 C 556.226562 322.5 556.101562 325.566406 556.082031 341.042969 C 556.0625 367.664062 554.875 381.535156 551.375 395.351562 C 550.203125 400.003906 549.226562 402.910156 548.054688 405.34375 C 546.304688 408.933594 545.007812 410.121094 540.011719 412.738281 C 536.457031 414.597656 533.554688 416.507812 528.214844 420.511719 C 521.59375 425.472656 519.394531 426.878906 515.789062 428.414062 C 513.28125 429.496094 511.546875 429.964844 510.140625 429.964844 C 509.167969 429.964844 508.933594 429.890625 508.265625 429.367188 C 506.949219 428.375 506.949219 428.429688 508.375 419.050781 C 509.871094 409.292969 510.503906 403.234375 510.972656 394.160156 C 511.3125 387.59375 511.351562 385.664062 511.167969 380.453125 C 511.078125 377.585938 510.972656 373.597656 510.917969 371.632812 C 510.84375 369.503906 510.738281 367.953125 510.628906 367.84375 C 510.320312 367.539062 509.078125 368.296875 509.132812 368.726562 C 509.148438 368.925781 509.058594 370.097656 508.914062 371.34375 C 508.554688 374.664062 508.320312 378.109375 508.011719 385.050781 C 507.582031 394.738281 506.894531 403.808594 505.847656 413.371094 C 505.507812 416.472656 503.9375 426.953125 503.792969 427.113281 C 503.574219 427.367188 502.0625 427.546875 501.214844 427.421875 C 500.761719 427.347656 499.878906 427.078125 499.285156 426.808594 L 498.183594 426.300781 L 498.722656 425.636719 C 499.355469 424.839844 499.96875 423.542969 499.988281 423.019531 C 499.988281 422.550781 499.335938 421.484375 499.050781 421.484375 C 498.707031 421.484375 496.523438 423.507812 496.199219 424.082031 C 496.054688 424.371094 495.839844 424.550781 495.65625 424.5 C 495.511719 424.460938 494.324219 423.667969 493.007812 422.75 L 490.625 421.089844 L 492.285156 419.808594 C 494.179688 418.347656 495.875 416.6875 496.289062 415.875 C 496.648438 415.210938 496.523438 414.46875 495.929688 413.839844 C 495.40625 413.28125 494.972656 413.242188 494.070312 413.710938 C 492.917969 414.308594 490.101562 417.085938 488.714844 419.015625 L 488.351562 419.519531 L 485.574219 417.464844 C 484.042969 416.347656 482.761719 415.355469 482.726562 415.246094 C 482.6875 415.15625 483.210938 414.703125 483.878906 414.273438 C 486.171875 412.757812 488.625 410.175781 488.625 409.273438 C 488.625 408.660156 488.15625 407.832031 487.738281 407.6875 C 487.074219 407.488281 486.53125 407.867188 482.417969 411.53125 C 481.15625 412.648438 480.21875 413.371094 480.054688 413.296875 C 479.929688 413.261719 479.171875 412.738281 478.414062 412.179688 C 475.332031 409.90625 468.402344 405.398438 463.011719 402.1875 C 449.683594 394.25 444.089844 390.894531 440.015625 388.441406 C 437.632812 387 434.222656 385.015625 432.4375 384.058594 C 429.390625 382.417969 415.609375 375.492188 404.03125 369.808594 C 391.640625 363.714844 390.230469 362.703125 388.71875 358.773438 C 388.175781 357.328125 388.15625 357.273438 388.445312 356.660156 C 388.988281 355.5625 388.210938 354.207031 387.074219 354.207031 C 386.589844 354.207031 386.210938 354.515625 384.441406 356.320312 L 382.367188 358.445312 L 382.457031 355.289062 C 382.566406 351.898438 382.765625 350.3125 383.738281 345.371094 C 384.984375 338.929688 384.964844 337.632812 383.484375 333.195312 C 382.441406 330.058594 381.972656 328.289062 381.554688 325.890625 C 381.105469 323.292969 381.03125 315.574219 381.375 308.125 C 382.023438 294.273438 381.953125 288.101562 381.105469 282.960938 C 380.925781 281.828125 380.761719 280.78125 380.761719 280.652344 C 380.761719 280.507812 381.050781 280.617188 381.539062 280.941406 C 381.953125 281.230469 383.71875 282.296875 385.453125 283.324219 Z M 433.648438 299.574219 C 435.867188 300.042969 438.28125 301.613281 439.347656 303.289062 C 439.652344 303.757812 440.300781 305.074219 440.789062 306.175781 C 441.292969 307.292969 442.070312 308.738281 442.519531 309.367188 L 443.351562 310.542969 L 441.691406 309.765625 C 440.773438 309.332031 437.941406 308.140625 435.414062 307.132812 C 431.175781 305.402344 422.609375 301.304688 422.609375 301 C 422.609375 300.875 426.9375 299.863281 428.742188 299.574219 C 430.203125 299.339844 432.546875 299.339844 433.648438 299.574219 Z M 433.648438 299.574219 "/></g><path style=" stroke:none;fill-rule:nonzero;fill:#383838;fill-opacity:1;" d="M 265.992188 176.164062 C 263.125 177.679688 257.949219 182.207031 257.371094 183.722656 C 257.136719 184.335938 257.171875 185.273438 257.460938 185.652344 C 257.695312 185.976562 257.734375 185.960938 258.5625 185.472656 C 260.3125 184.460938 267.777344 177.824219 267.960938 177.140625 C 268.121094 176.542969 267.796875 175.734375 267.382812 175.679688 C 267.183594 175.644531 266.550781 175.878906 265.992188 176.164062 Z M 265.992188 176.164062 "/><path style=" stroke:none;fill-rule:nonzero;fill:#383838;fill-opacity:1;" d="M 289.332031 184.410156 C 287.367188 184.933594 283.09375 187.402344 280.027344 189.800781 C 277.898438 191.480469 277.230469 192.238281 277.195312 192.976562 C 277.175781 193.734375 277.375 194.402344 277.628906 194.402344 C 277.933594 194.402344 284.625 190.34375 287.835938 188.234375 C 290.867188 186.230469 291.246094 185.832031 291.011719 184.914062 C 290.847656 184.246094 290.433594 184.136719 289.332031 184.410156 Z M 289.332031 184.410156 "/><path style=" stroke:none;fill-rule:nonzero;fill:#383838;fill-opacity:1;" d="M 301.039062 189.765625 C 297.089844 192.21875 296.167969 192.996094 296.167969 193.894531 C 296.167969 194.238281 296.277344 194.671875 296.421875 194.871094 C 296.675781 195.195312 296.691406 195.195312 297.558594 194.796875 C 298.964844 194.113281 301.832031 192.128906 302.535156 191.351562 C 303.203125 190.613281 303.382812 189.855469 303.09375 189.097656 C 302.933594 188.664062 302.699219 188.738281 301.039062 189.765625 Z M 301.039062 189.765625 "/><path style=" stroke:none;fill-rule:nonzero;fill:#383838;fill-opacity:1;" d="M 169.371094 195.050781 C 168.628906 195.085938 165.707031 195.195312 162.875 195.304688 C 160.042969 195.410156 156.941406 195.574219 155.96875 195.664062 C 153.335938 195.917969 152.558594 196.476562 153.695312 197.324219 C 154.144531 197.664062 154.199219 197.664062 155.121094 197.359375 C 155.984375 197.070312 156.941406 197.050781 167.007812 197.160156 C 173.011719 197.234375 179.8125 197.359375 182.085938 197.46875 C 190.816406 197.847656 204.957031 198.75 208.851562 199.164062 C 210.765625 199.363281 211.160156 199.363281 211.378906 199.164062 C 211.613281 198.945312 211.539062 198.820312 210.925781 198.226562 C 210.277344 197.628906 209.972656 197.484375 208.132812 197.070312 C 204.414062 196.1875 200.589844 195.734375 193.269531 195.304688 C 190.148438 195.105469 172.164062 194.925781 169.371094 195.050781 Z M 169.371094 195.050781 "/><path style=" stroke:none;fill-rule:nonzero;fill:#383838;fill-opacity:1;" d="M 351.707031 202.84375 C 349.957031 203.671875 342.363281 208.289062 341.675781 208.9375 C 341.007812 209.570312 340.902344 209.769531 340.902344 210.398438 C 340.902344 211.589844 341.171875 211.664062 342.992188 210.921875 C 345.246094 210.003906 347.882812 208.46875 350.261719 206.648438 C 351.417969 205.78125 352.535156 204.898438 352.769531 204.699219 C 353.203125 204.285156 353.292969 203.457031 352.984375 202.859375 C 352.75 202.445312 352.554688 202.445312 351.707031 202.84375 Z M 351.707031 202.84375 "/><path style=" stroke:none;fill-rule:nonzero;fill:#383838;fill-opacity:1;" d="M 227.59375 202.804688 C 227.015625 203.382812 227.988281 204.359375 229.199219 204.410156 C 229.667969 204.449219 232.136719 205.078125 234.664062 205.855469 C 239.40625 207.28125 242.90625 208.164062 243.175781 208 C 243.824219 207.585938 242.707031 206.703125 240.398438 205.800781 C 235.761719 203.980469 228.152344 202.210938 227.59375 202.804688 Z M 227.59375 202.804688 "/><path style=" stroke:none;fill-rule:nonzero;fill:#383838;fill-opacity:1;" d="M 362.273438 205.78125 C 359.117188 207.53125 356.808594 209.046875 356.703125 209.460938 C 356.519531 210.09375 356.574219 210.726562 356.84375 211.085938 C 357.082031 211.410156 357.152344 211.390625 358.777344 210.742188 C 361.445312 209.640625 363.628906 208.46875 364.476562 207.660156 C 365.105469 207.046875 365.25 206.792969 365.25 206.25 C 365.25 205.351562 364.960938 204.683594 364.582031 204.683594 C 364.402344 204.683594 363.355469 205.167969 362.273438 205.78125 Z M 362.273438 205.78125 "/><path style=" stroke:none;fill-rule:nonzero;fill:#383838;fill-opacity:1;" d="M 133.566406 217.21875 C 131.691406 217.613281 129.777344 218.515625 127.253906 220.210938 C 124.871094 221.800781 124.007812 222.917969 124.546875 223.746094 C 124.855469 224.214844 125.847656 224.882812 126.226562 224.882812 C 126.351562 224.882812 127.234375 224.378906 128.210938 223.765625 C 131.851562 221.4375 135.675781 219.113281 135.855469 219.113281 C 135.945312 219.113281 136.183594 218.929688 136.363281 218.714844 C 137.171875 217.703125 135.496094 216.820312 133.566406 217.21875 Z M 133.566406 217.21875 "/><path style=" stroke:none;fill-rule:nonzero;fill:#383838;fill-opacity:1;" d="M 134.992188 221.097656 C 132.664062 222.304688 127.703125 226.109375 127.703125 226.6875 C 127.703125 227.066406 128.695312 227.96875 129.328125 228.148438 C 129.957031 228.347656 130.121094 228.3125 131.023438 227.859375 C 132.140625 227.300781 135.460938 224.847656 137.226562 223.3125 C 137.96875 222.648438 138.347656 222.195312 138.347656 221.925781 C 138.347656 221.421875 137.679688 220.769531 136.921875 220.554688 C 136.417969 220.410156 136.164062 220.484375 134.992188 221.097656 Z M 134.992188 221.097656 "/><path style=" stroke:none;fill-rule:nonzero;fill:#383838;fill-opacity:1;" d="M 225.25 225.496094 C 223.480469 226.21875 220.667969 228.003906 219.097656 229.394531 C 218.035156 230.332031 217.4375 231.414062 217.691406 231.898438 C 217.996094 232.460938 218.933594 233.144531 219.65625 233.359375 C 220.269531 233.523438 220.449219 233.488281 221.765625 232.839844 C 224.273438 231.59375 228.421875 228.472656 228.980469 227.425781 C 229.199219 226.976562 229.199219 226.867188 228.890625 226.378906 C 228.550781 225.820312 227.25 225.0625 226.617188 225.0625 C 226.4375 225.0625 225.824219 225.261719 225.25 225.496094 Z M 225.25 225.496094 "/><path style=" stroke:none;fill-rule:nonzero;fill:#383838;fill-opacity:1;" d="M 172.164062 239.332031 C 171.246094 239.601562 168.539062 241.042969 166.609375 242.308594 C 162.875 244.742188 159.808594 247.375 159.089844 248.726562 C 158.710938 249.449219 158.691406 249.578125 158.925781 250.046875 C 159.324219 250.875 160.296875 251.453125 161.125 251.34375 C 162.351562 251.179688 165.132812 249.160156 170.722656 244.363281 C 172.507812 242.832031 174.238281 241.351562 174.5625 241.082031 C 175.285156 240.46875 175.25 240.105469 174.4375 239.546875 C 173.808594 239.113281 173.101562 239.042969 172.164062 239.332031 Z M 172.164062 239.332031 "/><path style=" stroke:none;fill-rule:nonzero;fill:#383838;fill-opacity:1;" d="M 181.238281 243.351562 C 179.796875 243.949219 175.738281 246.203125 173.898438 247.449219 C 173.050781 248.023438 171.914062 248.925781 171.371094 249.46875 C 170.234375 250.640625 170.21875 251.109375 171.28125 251.757812 C 172.058594 252.246094 172.851562 252.191406 174.328125 251.507812 C 176.152344 250.675781 181.039062 247.230469 183.042969 245.355469 C 183.871094 244.578125 184.015625 244.363281 183.925781 243.984375 C 183.816406 243.550781 182.96875 242.921875 182.5 242.921875 C 182.375 242.921875 181.796875 243.117188 181.238281 243.351562 Z M 181.238281 243.351562 "/><path style=" stroke:none;fill-rule:nonzero;fill:#383838;fill-opacity:1;" d="M 194.171875 269.398438 C 193.269531 269.597656 190.492188 271.707031 186.289062 275.441406 C 182.679688 278.632812 161.035156 300.546875 161.109375 300.925781 C 161.199219 301.378906 162.445312 301.957031 163.34375 301.972656 L 164.140625 301.992188 L 169.566406 296.582031 C 172.5625 293.605469 177.199219 288.769531 179.886719 285.847656 C 182.574219 282.925781 187.171875 278.109375 190.074219 275.171875 C 192.996094 272.230469 195.324219 269.742188 195.269531 269.652344 C 195.125 269.417969 194.621094 269.308594 194.171875 269.398438 Z M 194.171875 269.398438 "/><path style=" stroke:none;fill-rule:nonzero;fill:#383838;fill-opacity:1;" d="M 170.757812 270.15625 C 169.371094 271.023438 166.699219 273.566406 156.925781 283.234375 C 151.820312 288.285156 146.695312 293.296875 145.542969 294.363281 C 144.386719 295.425781 143.394531 296.472656 143.34375 296.6875 C 143.125 297.535156 144.859375 298.472656 146.191406 298.222656 C 146.644531 298.132812 146.894531 297.96875 146.949219 297.734375 C 147.003906 297.554688 147.742188 296.816406 148.609375 296.09375 C 151.171875 293.945312 153.261719 291.835938 159.269531 285.398438 C 166.828125 277.28125 169.695312 274.179688 171.515625 272.175781 C 172.347656 271.257812 173.121094 270.515625 173.246094 270.515625 C 173.734375 270.515625 173.699219 270.15625 173.175781 269.886719 C 172.382812 269.488281 171.695312 269.5625 170.757812 270.15625 Z M 170.757812 270.15625 "/><path style=" stroke:none;fill-rule:nonzero;fill:#383838;fill-opacity:1;" d="M 255.136719 270.480469 C 254.199219 271.058594 251.546875 274 248.300781 278.054688 C 244.257812 283.125 241.246094 287.128906 240.382812 288.570312 C 239.28125 290.449219 239.605469 291.566406 241.410156 291.980469 C 242.238281 292.160156 242.78125 292.035156 242.78125 291.636719 C 242.78125 291.457031 243.683594 290.265625 244.765625 288.988281 C 245.863281 287.707031 247.667969 285.378906 248.785156 283.808594 C 250.714844 281.105469 256.253906 272.628906 256.957031 271.3125 C 257.300781 270.679688 257.300781 270.660156 256.957031 270.410156 C 256.46875 270.066406 255.785156 270.085938 255.136719 270.480469 Z M 255.136719 270.480469 "/><path style=" stroke:none;fill-rule:nonzero;fill:#383838;fill-opacity:1;" d="M 264.28125 274.863281 C 262.601562 276.234375 256.199219 283.414062 253.675781 286.75 C 252.214844 288.679688 251.617188 289.851562 251.617188 290.808594 C 251.617188 291.800781 252.195312 292.339844 253.332031 292.484375 C 254.015625 292.558594 254.214844 292.503906 254.414062 292.214844 C 254.558594 292.015625 255.351562 291.023438 256.199219 290.03125 C 258.21875 287.617188 265.8125 276.882812 266.679688 275.226562 C 266.984375 274.628906 266.984375 274.59375 266.660156 274.359375 C 266.046875 273.90625 265.253906 274.070312 264.28125 274.863281 Z M 264.28125 274.863281 "/><path style=" stroke:none;fill-rule:nonzero;fill:#383838;fill-opacity:1;" d="M 271.007812 276.632812 C 269.835938 277.371094 264.242188 283.429688 264.242188 283.972656 C 264.242188 284.316406 265.199219 284.765625 265.902344 284.765625 C 267.148438 284.765625 269.203125 282.890625 271.53125 279.660156 C 272.109375 278.851562 272.757812 277.839844 272.957031 277.40625 C 273.296875 276.738281 273.296875 276.613281 273.082031 276.46875 C 272.632812 276.179688 271.585938 276.269531 271.007812 276.632812 Z M 271.007812 276.632812 "/><path style=" stroke:none;fill-rule:nonzero;fill:#383838;fill-opacity:1;" d="M 307.296875 278.289062 C 306.8125 278.5625 305.621094 280.472656 305.1875 281.664062 L 304.808594 282.691406 L 305.1875 283 C 305.441406 283.195312 305.890625 283.324219 306.34375 283.324219 C 307.0625 283.324219 307.117188 283.269531 308 282.007812 C 308.507812 281.304688 309.121094 280.402344 309.355469 280.039062 C 309.589844 279.660156 309.929688 279.355469 310.113281 279.355469 C 310.292969 279.355469 310.417969 279.210938 310.417969 279.011719 C 310.417969 278.308594 308.164062 277.785156 307.296875 278.289062 Z M 307.296875 278.289062 "/><path style=" stroke:none;fill-rule:nonzero;fill:#383838;fill-opacity:1;" d="M 278.222656 279.84375 C 277.464844 280.039062 276.871094 280.671875 276.257812 281.917969 C 275.894531 282.621094 275.605469 283.339844 275.605469 283.523438 C 275.605469 283.972656 276.292969 284.40625 276.976562 284.40625 C 277.589844 284.40625 277.953125 284.027344 279.125 282.242188 C 279.414062 281.789062 279.847656 281.214844 280.082031 280.941406 L 280.511719 280.472656 L 280.097656 280.203125 C 279.59375 279.878906 278.726562 279.714844 278.222656 279.84375 Z M 278.222656 279.84375 "/><path style=" stroke:none;fill-rule:nonzero;fill:#383838;fill-opacity:1;" d="M 215.921875 280.09375 C 215.203125 280.382812 214.136719 281.304688 210.3125 285.019531 C 208.273438 286.984375 205.445312 289.636719 204 290.878906 C 197.851562 296.238281 197.761719 296.347656 198.15625 296.976562 C 198.859375 298.09375 200.988281 298.367188 202.429688 297.519531 C 205.011719 296.003906 210.1875 290.304688 214.28125 284.496094 C 215.398438 282.910156 216.535156 281.355469 216.84375 281.050781 C 217.238281 280.617188 217.3125 280.457031 217.132812 280.3125 C 216.734375 280.003906 216.375 279.933594 215.921875 280.09375 Z M 215.921875 280.09375 "/><path style=" stroke:none;fill-rule:nonzero;fill:#383838;fill-opacity:1;" d="M 223.570312 284.640625 C 220.8125 287.507812 218.070312 291.167969 218.070312 292 C 218.070312 292.503906 218.933594 293.0625 219.691406 293.0625 C 220.488281 293.0625 221.28125 292.46875 222.757812 290.789062 C 224.832031 288.445312 227.574219 284.171875 227.304688 283.757812 C 227.070312 283.394531 226.402344 283.144531 225.699219 283.144531 C 225.066406 283.144531 224.886719 283.269531 223.570312 284.640625 Z M 223.570312 284.640625 "/><path style=" stroke:none;fill-rule:nonzero;fill:#383838;fill-opacity:1;" d="M 78.769531 282.007812 C 78.609375 282.386719 78.554688 284.171875 78.570312 288.644531 C 78.589844 295.445312 78.734375 297.230469 79.816406 302.984375 C 80.683594 307.636719 81.421875 313.984375 81.078125 313.984375 C 80.828125 313.984375 76.480469 310.398438 75.289062 309.1875 C 73.792969 307.671875 72.78125 306.390625 71.339844 304.191406 C 69.445312 301.269531 68.289062 298.691406 66.722656 293.875 C 65.222656 289.277344 64.738281 288.085938 64.230469 287.707031 C 63.855469 287.417969 62.824219 287.417969 62.71875 287.6875 C 62.464844 288.390625 63.691406 295.226562 64.574219 297.953125 C 65.316406 300.242188 67.371094 304.316406 68.867188 306.410156 C 70.273438 308.375 73.089844 311.28125 75.054688 312.757812 C 76.820312 314.113281 80.195312 316.152344 80.863281 316.277344 C 81.203125 316.347656 81.53125 316.621094 81.816406 317.089844 C 82.339844 317.898438 83.421875 318.476562 84.453125 318.496094 C 85.75 318.496094 85.949219 317.847656 85.804688 314.003906 C 85.695312 310.722656 85.371094 308.71875 84.144531 303.34375 C 82.992188 298.367188 82.703125 296.671875 81.636719 288.375 C 80.898438 282.765625 80.789062 282.113281 80.429688 281.828125 C 79.816406 281.339844 79.039062 281.429688 78.769531 282.007812 Z M 78.769531 282.007812 "/><path style=" stroke:none;fill-rule:nonzero;fill:#383838;fill-opacity:1;" d="M 87.230469 289.472656 C 87.085938 289.816406 86.886719 291.023438 86.777344 292.160156 C 86.5625 294.398438 86.238281 300.730469 86.328125 301.179688 C 86.34375 301.324219 86.382812 301.578125 86.382812 301.738281 C 86.398438 302.101562 87.140625 302.441406 87.914062 302.441406 C 88.582031 302.441406 88.78125 302.191406 89.214844 300.640625 C 89.574219 299.394531 89.753906 293.046875 89.503906 291.007812 C 89.285156 289.417969 89.105469 289.132812 88.148438 288.96875 C 87.519531 288.878906 87.464844 288.898438 87.230469 289.472656 Z M 87.230469 289.472656 "/><path style=" stroke:none;fill-rule:nonzero;fill:#383838;fill-opacity:1;" d="M 266.894531 314.597656 C 266.425781 315.085938 266.335938 316.347656 266.679688 318.351562 C 267.039062 320.496094 267.742188 323.039062 268.175781 323.796875 C 268.679688 324.683594 270.304688 324.863281 270.105469 324.015625 C 269.726562 322.335938 269.238281 318.605469 269.203125 316.980469 C 269.148438 314.78125 269.042969 314.5625 267.90625 314.402344 C 267.402344 314.328125 267.113281 314.382812 266.894531 314.597656 Z M 266.894531 314.597656 "/><path style=" stroke:none;fill-rule:nonzero;fill:#383838;fill-opacity:1;" d="M 352.714844 320.730469 C 351.902344 321.542969 351.34375 324.5 351 329.859375 C 350.765625 333.339844 350.894531 334.765625 351.488281 335.46875 C 352.335938 336.476562 353.90625 336.496094 354.140625 335.503906 C 354.210938 335.234375 354.320312 332.960938 354.355469 330.488281 C 354.535156 319.46875 354.574219 320.695312 354.105469 320.480469 C 353.492188 320.207031 353.203125 320.261719 352.714844 320.730469 Z M 352.714844 320.730469 "/><path style=" stroke:none;fill-rule:nonzero;fill:#383838;fill-opacity:1;" d="M 192.367188 321.328125 C 192.058594 322.011719 192.058594 327.171875 192.347656 337.976562 C 192.800781 355.21875 192.90625 356.660156 193.738281 357.4375 C 194.152344 357.816406 195.179688 358.070312 195.703125 357.90625 C 196.570312 357.636719 197.074219 354.605469 196.894531 350.621094 C 196.769531 347.734375 196.480469 343.65625 196.335938 342.808594 L 196.261719 342.320312 L 196.875 342.59375 C 198.191406 343.132812 198.554688 342.988281 200.230469 341.257812 C 201.078125 340.390625 202.214844 339.113281 202.757812 338.425781 C 203.296875 337.722656 205.605469 334.820312 207.898438 331.949219 C 213.34375 325.0625 214.859375 322.988281 214.605469 322.699219 C 214.261719 322.28125 213.308594 322.425781 212.441406 323.039062 C 210.023438 324.773438 201.890625 332.746094 199.4375 335.8125 C 198.390625 337.109375 197.09375 338.96875 196.335938 340.230469 C 196.191406 340.464844 196.0625 339.6875 195.8125 337.144531 C 194.964844 328.269531 194.117188 321.34375 193.882812 321.183594 C 193.429688 320.894531 192.511719 321.003906 192.367188 321.328125 Z M 192.367188 321.328125 "/><path style=" stroke:none;fill-rule:nonzero;fill:#383838;fill-opacity:1;" d="M 224.453125 325.855469 C 223.644531 326.449219 216.101562 333.609375 212.476562 337.253906 C 208.328125 341.402344 207.699219 343.097656 210.1875 343.511719 C 210.800781 343.601562 210.910156 343.511719 213.234375 341.347656 C 218.25 336.675781 222.253906 332.277344 224.832031 328.6875 C 226.816406 325.925781 226.890625 325.65625 225.734375 325.421875 C 225.320312 325.347656 225.03125 325.441406 224.453125 325.855469 Z M 224.453125 325.855469 "/><path style=" stroke:none;fill-rule:nonzero;fill:#383838;fill-opacity:1;" d="M 233.671875 328.21875 C 232.570312 328.722656 230.820312 330.109375 229.722656 331.375 C 228.601562 332.636719 227.449219 334.457031 227.449219 334.945312 C 227.449219 335.359375 228.171875 335.828125 229.019531 335.9375 C 229.683594 336.027344 229.738281 335.972656 231.613281 334.0625 C 232.660156 332.996094 234.160156 331.429688 234.953125 330.597656 C 235.726562 329.769531 236.558594 329.027344 236.792969 328.9375 C 237.710938 328.578125 236.71875 327.875 235.292969 327.875 C 234.808594 327.875 234.066406 328.035156 233.671875 328.21875 Z M 233.671875 328.21875 "/><path style=" stroke:none;fill-rule:nonzero;fill:#383838;fill-opacity:1;" d="M 346.601562 337.832031 C 346.238281 338.390625 345.953125 340.679688 345.953125 342.863281 C 345.953125 344.539062 345.988281 344.703125 346.402344 345.101562 C 346.726562 345.441406 347.035156 345.550781 347.574219 345.550781 C 348.546875 345.550781 348.925781 345.335938 349.179688 344.632812 C 349.59375 343.441406 349.253906 338.914062 348.675781 337.8125 C 348.367188 337.253906 346.960938 337.273438 346.601562 337.832031 Z M 346.601562 337.832031 "/><path style=" stroke:none;fill-rule:nonzero;fill:#383838;fill-opacity:1;" d="M 351.199219 340.625 C 350.730469 341.023438 350.480469 342.015625 350.460938 343.476562 C 350.460938 345.550781 350.984375 346.453125 352.210938 346.453125 C 353.726562 346.453125 354.25 345.730469 354.25 343.621094 C 354.25 341.90625 353.996094 340.96875 353.472656 340.589844 C 352.949219 340.210938 351.6875 340.246094 351.199219 340.625 Z M 351.199219 340.625 "/><path style=" stroke:none;fill-rule:nonzero;fill:#383838;fill-opacity:1;" d="M 82.105469 343.261719 C 81.691406 343.746094 81.53125 345.296875 81.347656 350.511719 C 81.242188 353.488281 81.042969 357.671875 80.898438 359.800781 C 80.214844 369.683594 80.195312 370.136719 80.394531 371.792969 C 80.628906 373.671875 80.96875 374.121094 82.324219 374.320312 C 83.550781 374.519531 83.839844 374.335938 84.128906 373.273438 C 85.136719 369.71875 85.460938 355.996094 84.703125 350.058594 C 84.144531 345.820312 83.695312 343.496094 83.386719 343.242188 C 82.992188 342.953125 82.339844 342.953125 82.105469 343.261719 Z M 82.105469 343.261719 "/><path style=" stroke:none;fill-rule:nonzero;fill:#383838;fill-opacity:1;" d="M 94.984375 351.898438 C 94.605469 352.421875 94.605469 354.101562 94.984375 358.265625 C 95.308594 361.929688 95.4375 362.21875 96.664062 362.109375 C 97.257812 362.054688 97.3125 362 97.511719 361.171875 C 97.90625 359.601562 98.179688 357.039062 98.050781 355.757812 C 97.871094 353.722656 97.421875 352.082031 96.988281 351.773438 C 96.390625 351.359375 95.308594 351.429688 94.984375 351.898438 Z M 94.984375 351.898438 "/><path style=" stroke:none;fill-rule:nonzero;fill:#383838;fill-opacity:1;" d="M 74.207031 352.097656 C 74.082031 352.441406 74.421875 353.054688 76.066406 355.417969 C 77.054688 356.859375 77.292969 357.09375 77.851562 357.203125 C 78.96875 357.402344 78.96875 357.113281 77.8125 355.019531 C 76.425781 352.496094 76.046875 352.082031 75.089844 351.9375 C 74.476562 351.84375 74.296875 351.882812 74.207031 352.097656 Z M 74.207031 352.097656 "/><path style=" stroke:none;fill-rule:nonzero;fill:#383838;fill-opacity:1;" d="M 102.886719 354.714844 C 101.929688 355.34375 102.074219 358.015625 103.210938 360.917969 C 103.660156 362.074219 103.859375 362.359375 104.347656 362.578125 C 105.03125 362.902344 105.71875 362.957031 105.988281 362.6875 C 106.148438 362.523438 105.554688 356.625 105.25 355.363281 C 105.105469 354.730469 103.5 354.296875 102.886719 354.714844 Z M 102.886719 354.714844 "/><path style=" stroke:none;fill-rule:nonzero;fill:#383838;fill-opacity:1;" d="M 229.902344 361.277344 C 229.539062 361.820312 229.304688 362.972656 229.160156 364.851562 C 229 366.871094 229.269531 368.367188 229.917969 369.035156 C 230.460938 369.59375 232.046875 370.152344 232.605469 369.972656 C 233.832031 369.574219 234.050781 369.195312 233.347656 368.726562 C 232.933594 368.476562 232.914062 368.3125 232.804688 366.058594 C 232.660156 363.246094 232.320312 361.460938 231.851562 361.117188 C 231.308594 360.71875 230.207031 360.808594 229.902344 361.277344 Z M 229.902344 361.277344 "/><path style=" stroke:none;fill-rule:nonzero;fill:#383838;fill-opacity:1;" d="M 190.09375 364.976562 C 189.859375 365.03125 189.734375 365.589844 189.5 367.789062 C 189.320312 369.304688 188.578125 375.402344 187.820312 381.355469 C 187.082031 387.304688 186.46875 392.84375 186.449219 393.65625 C 186.414062 394.953125 186.46875 395.1875 186.792969 395.511719 C 187.261719 396 188.507812 396.199219 188.796875 395.855469 C 189.066406 395.511719 189.660156 392.914062 190.003906 390.644531 C 190.5625 386.855469 191.519531 376.988281 191.933594 370.75 C 192.167969 366.960938 192.058594 365.679688 191.5 365.320312 C 190.996094 365.011719 190.472656 364.867188 190.09375 364.976562 Z M 190.09375 364.976562 "/><path style=" stroke:none;fill-rule:nonzero;fill:#383838;fill-opacity:1;" d="M 274.453125 365.660156 C 273.261719 366.851562 273.984375 370.695312 275.535156 371.433594 C 275.878906 371.597656 276.382812 371.703125 276.652344 371.667969 C 277.210938 371.613281 277.195312 371.703125 276.960938 368.277344 C 276.832031 366.472656 276.761719 366.167969 276.402344 365.804688 C 275.914062 365.320312 274.867188 365.246094 274.453125 365.660156 Z M 274.453125 365.660156 "/><path style=" stroke:none;fill-rule:nonzero;fill:#383838;fill-opacity:1;" d="M 283.8125 242.269531 C 282.660156 243.046875 279.574219 245.804688 278.960938 246.617188 C 278.710938 246.941406 278.492188 247.410156 278.492188 247.644531 C 278.492188 248.113281 279.089844 248.871094 279.449219 248.871094 C 280.296875 248.871094 285.707031 244.488281 286.085938 243.496094 C 286.355469 242.8125 285.691406 241.65625 285.023438 241.65625 C 284.84375 241.65625 284.300781 241.929688 283.8125 242.269531 Z M 283.8125 242.269531 "/><path style=" stroke:none;fill-rule:nonzero;fill:#383838;fill-opacity:1;" d="M 270.703125 243.984375 C 268.15625 245.898438 266.535156 247.59375 266.714844 248.097656 C 266.894531 248.636719 267.347656 249.054688 267.742188 249.054688 C 268.355469 249.054688 270.359375 247.644531 271.890625 246.132812 C 273.152344 244.867188 273.296875 244.671875 273.171875 244.238281 C 273.0625 243.769531 272.414062 242.921875 272.199219 242.921875 C 272.144531 242.921875 271.457031 243.40625 270.703125 243.984375 Z M 270.703125 243.984375 "/><path style=" stroke:none;fill-rule:nonzero;fill:#383838;fill-opacity:1;" d="M 253.546875 247.214844 C 252.105469 248.007812 250.480469 249.179688 250.210938 249.59375 C 250.066406 249.828125 250.101562 250.0625 250.320312 250.515625 C 250.570312 251.039062 250.714844 251.128906 251.222656 251.109375 C 251.886719 251.074219 254.035156 249.792969 255.242188 248.710938 L 256.039062 248.007812 L 255.675781 247.304688 C 255.476562 246.925781 255.1875 246.601562 255.046875 246.582031 C 254.902344 246.546875 254.234375 246.835938 253.546875 247.214844 Z M 253.546875 247.214844 "/></g></svg>