<svg xmlns="http://www.w3.org/2000/svg" xmlns:xlink="http://www.w3.org/1999/xlink" width="800" zoomAndPan="magnify" viewBox="0 0 375 375" height="800" preserveAspectRatio="xMidYMid meet" version="1.2"><g id="a39912b781"><path style=" stroke:none;fill-rule:nonzero;fill:#383838;fill-opacity:1;" d="M 327.890625 276.839844 C 327.296875 281.683594 319.050781 300.835938 326.867188 301.167969 C 351.113281 299.515625 375.132812 296.648438 398.777344 290.75 C 409.558594 288.019531 420.199219 284.6875 431.078125 282.410156 C 434.355469 282.128906 432.9375 278.308594 435.273438 277.242188 C 436.007812 276.960938 436.757812 276.535156 437.117188 275.730469 C 436.066406 275.988281 431.121094 277.191406 433.570312 274.929688 C 435.367188 273.558594 437.320312 274.402344 438.925781 272.277344 C 437.066406 271.902344 430.304688 275.390625 431.421875 272.789062 C 433.867188 270.625 437.707031 271.570312 439.929688 269.492188 C 436.253906 268.621094 431.589844 273.285156 428.292969 270.667969 C 426.082031 267.339844 432.945312 268.28125 434.277344 266.507812 C 432.375 266.25 430.484375 266.421875 428.597656 266.726562 C 428.71875 265.78125 430.074219 266.070312 430.242188 265.167969 C 427.695312 264.296875 425.078125 267.359375 422.886719 265.285156 C 421.179688 262.601562 426.082031 263.898438 427.082031 262.34375 C 425.347656 261.371094 423.167969 262.695312 421.214844 262.550781 C 419.703125 262.695312 419.976562 261.261719 421.128906 261.058594 C 423.421875 260.109375 425.671875 260.410156 427.875 259.136719 C 423.515625 257.816406 417.683594 263.410156 414.929688 258.285156 C 415.644531 256.207031 420.523438 257.699219 421.050781 255.90625 C 417.445312 254.5 412.097656 259.667969 409.632812 254.753906 C 415.558594 253.691406 421.195312 252.683594 427.054688 251.625 C 419.730469 251.183594 413.054688 253.101562 406.121094 254.046875 C 404.21875 254.097656 403.460938 252.019531 405.675781 251.898438 C 407.347656 250.925781 412.234375 251.097656 412.515625 249.195312 C 408.371094 249.253906 404.746094 251.25 400.945312 252.050781 C 399.433594 251.4375 395.597656 251.539062 395.28125 249.902344 C 395.777344 249.214844 396.835938 249.273438 397.175781 248.402344 C 394.660156 247.667969 393.046875 250.535156 390.464844 249.441406 C 374.859375 246.09375 357.046875 250.066406 344.035156 259.25 C 338.175781 264.730469 329.863281 268.289062 327.890625 276.839844 Z M 428.460938 266.804688 C 427.855469 267.460938 427.140625 267.625 426.269531 267.1875 C 426.953125 266.617188 427.703125 266.675781 428.460938 266.804688 Z M 365.609375 253.988281 C 372.191406 252.582031 379.046875 250.398438 385.765625 250.59375 C 404.160156 253.730469 423.371094 262.5 431.949219 280.003906 C 430.839844 280.398438 430.054688 280.855469 429.246094 280.925781 C 422.636719 281.25 416.660156 285.09375 410.152344 285.230469 C 412.148438 282.222656 417.113281 281.972656 419.746094 279.304688 C 429.09375 269.515625 407.253906 260.65625 399.777344 258.773438 C 389.96875 254.015625 379.363281 255.933594 369.199219 258.097656 C 368.371094 258.277344 367.535156 258.789062 366.808594 258.046875 C 365.914062 257.082031 363.714844 254.953125 365.609375 253.988281 Z M 374.878906 277.027344 C 375.59375 278.597656 373.050781 279.851562 372.429688 278.164062 C 371.628906 276.355469 368.992188 273.140625 367.007812 274.898438 C 363.816406 277.371094 369.625 281.523438 368.574219 277.957031 C 368.40625 277.582031 368.089844 277.164062 368.59375 276.96875 C 368.882812 276.859375 369.460938 277.054688 369.699219 277.308594 C 372.082031 279.511719 369.285156 280.832031 367.382812 281.667969 C 363.960938 282.246094 362.929688 272.371094 358.378906 276.242188 C 357.566406 273.789062 355.75 267.945312 352.902344 267.921875 C 354.257812 265.507812 357.53125 265.304688 359.816406 264.085938 C 359.808594 264.101562 359.800781 264.109375 359.800781 264.117188 C 359.808594 264.125 359.828125 264.136719 359.835938 264.144531 C 359.859375 264.109375 359.878906 264.074219 359.902344 264.050781 C 359.878906 264.058594 359.851562 264.066406 359.828125 264.085938 C 362.085938 261.398438 372.445312 259.078125 376.171875 258.796875 C 377.878906 258.148438 378.195312 269.472656 376.914062 269.890625 C 374.707031 271.757812 373.394531 274.25 374.878906 277.027344 Z M 358.011719 289.195312 C 359.691406 289.964844 357.550781 292.496094 356.246094 292.054688 C 352.441406 291.507812 348.648438 290.902344 344.785156 291.269531 C 326.597656 291.917969 346.199219 270.949219 352.867188 267.980469 C 354.34375 270.777344 355.445312 274.84375 358.300781 276.363281 C 356.195312 284.011719 366.488281 282.007812 361.820312 286.117188 C 359.210938 290.527344 356.507812 284.25 355.296875 287.738281 C 354.992188 289.503906 356.808594 289.300781 358.011719 289.195312 Z M 360.535156 277.820312 C 362.007812 277.769531 363.101562 279.835938 363.324219 281.035156 C 361.804688 281.949219 359.265625 278.828125 360.535156 277.820312 Z M 378.175781 271.820312 C 379.4375 272.808594 378.664062 276.183594 377.238281 276.789062 C 375.261719 276.320312 376.003906 271.535156 378.175781 271.820312 Z M 345.5625 266.257812 C 345.960938 266.414062 346.550781 266.472656 346.371094 266.011719 C 346.082031 264.945312 345.636719 262.15625 345.773438 261.996094 C 346.507812 262.625 347.230469 263.257812 347.964844 263.898438 C 348.136719 264.042969 348.410156 264.074219 348.570312 263.898438 C 348.714844 263.734375 348.75 263.453125 348.570312 263.292969 C 347.878906 262.695312 347.199219 262.105469 346.507812 261.507812 C 347.136719 261.175781 347.820312 260.921875 348.519531 260.820312 C 349.5 261.671875 350.457031 262.550781 351.367188 263.46875 C 351.75 263.863281 352.355469 263.257812 351.972656 262.863281 C 351.171875 262.054688 349.851562 260.359375 350.046875 260.347656 C 350.328125 260.339844 350.625 260.347656 350.925781 260.375 C 350.925781 260.359375 350.925781 260.339844 350.925781 260.324219 C 352.253906 259.914062 353.660156 261.988281 354.796875 261.046875 C 355.511719 259.828125 353.335938 259.648438 352.765625 258.960938 C 352 258.507812 352.613281 257.519531 353.386719 257.800781 C 354.359375 258.15625 357.890625 261.382812 357.90625 259.222656 C 357.386719 258.378906 356.226562 258.132812 355.835938 256.972656 C 357.320312 256.265625 358.121094 257.78125 359.28125 257.996094 C 360.132812 258.277344 360.738281 257.714844 359.945312 256.988281 C 359.648438 256.527344 359.160156 256.085938 359.621094 255.480469 C 361.726562 253.542969 364.089844 256.8125 365.113281 258.457031 C 365.179688 258.890625 364.535156 259.472656 364.066406 259.566406 C 360.621094 260.613281 349.378906 265.859375 340.511719 276.796875 C 334.246094 284.53125 330.457031 292.675781 345.066406 293.09375 C 349.167969 291.925781 356.96875 295.285156 359.1875 293.375 C 364.097656 283.570312 374.179688 279.613281 384.707031 279.542969 C 391.699219 279.484375 397.644531 282.382812 403.042969 286.5625 C 406.050781 284.839844 399.800781 282.289062 399 280.78125 C 401.898438 280.261719 401.3125 276.148438 401.703125 273.941406 C 401.515625 271.503906 398.515625 273.089844 397.117188 273.414062 C 391.957031 277.34375 398.933594 280.636719 388 277.328125 C 388.050781 275.773438 389.167969 274.742188 389.757812 273.464844 C 392.015625 267.113281 382.882812 274.09375 381 275.144531 C 379.542969 274.605469 380.828125 272.007812 380.070312 270.804688 C 379.175781 268.65625 377.851562 258.097656 380.984375 258.21875 C 395.667969 257.96875 389.519531 257.226562 387.652344 268.132812 C 389.96875 265.464844 390.34375 261.757812 392.945312 259.035156 C 397.917969 259.472656 395.949219 261.089844 394.832031 264.273438 C 394.882812 264.28125 394.933594 264.304688 394.992188 264.324219 C 394.515625 265.320312 394.011719 266.320312 393.542969 267.324219 C 393.3125 267.820312 394.046875 268.253906 394.277344 267.75 C 394.957031 266.300781 395.667969 264.867188 396.367188 263.425781 C 396.691406 262.96875 396.945312 262.414062 397.296875 261.976562 C 398.453125 260.296875 402.605469 260.75 402.285156 263.199219 C 402.394531 263.292969 402.503906 263.386719 402.617188 263.488281 C 402.503906 263.394531 402.394531 263.300781 402.285156 263.199219 C 400.40625 264.894531 399.195312 267.007812 398.335938 269.355469 C 400.699219 268.65625 401.277344 265.398438 402.769531 263.617188 C 404.839844 262.445312 406.828125 263.375 408.773438 264.554688 C 408.703125 264.84375 408.457031 265.160156 408.335938 265.320312 C 407.972656 265.824219 407.585938 266.300781 407.1875 266.777344 C 407.167969 266.796875 407.152344 266.8125 407.136719 266.828125 C 406.519531 267.417969 405.933594 268.03125 405.363281 268.664062 C 405.097656 268.910156 404.832031 269.175781 404.558594 269.414062 C 404.398438 269.558594 404.398438 269.738281 404.476562 269.882812 C 404.507812 270.214844 404.910156 270.488281 405.183594 270.164062 C 405.457031 269.839844 405.746094 269.515625 406.027344 269.199219 C 406.582031 268.671875 407.101562 268.125 407.605469 267.554688 C 408.398438 266.789062 409.214844 266.054688 410.078125 265.363281 C 410.835938 265.832031 411.585938 266.265625 412.328125 266.566406 C 414.980469 269.191406 407.160156 272.59375 406.554688 275.628906 C 406.597656 275.664062 406.640625 275.691406 406.683594 275.722656 C 406.71875 275.757812 406.75 275.816406 406.777344 275.851562 C 406.804688 275.886719 406.828125 275.921875 406.863281 275.953125 C 409.804688 274.71875 413.914062 267.554688 416.5 269.746094 C 416.8125 272.6875 407.597656 276.457031 406.050781 279.75 C 405.183594 280.644531 406.171875 281.828125 407.238281 281.019531 C 409.601562 279.917969 418.800781 269.011719 420.003906 273.566406 C 420.515625 275.636719 420.003906 277.15625 418.085938 278.308594 C 414.253906 280.824219 409.15625 282.042969 405.71875 284.925781 C 406.519531 288.632812 389.527344 290.339844 386.226562 291.464844 C 367.570312 295.363281 349.109375 297.773438 330.066406 298.765625 C 331.183594 297.1875 332.992188 297.714844 334.101562 296.777344 C 334.074219 295.0625 329.410156 296.453125 327.984375 296.171875 C 328.71875 294.484375 330.78125 295.394531 331.550781 293.996094 C 329.980469 292.933594 327.789062 294.851562 326.765625 293.128906 C 326.347656 289.957031 329.582031 290.960938 331.355469 290.042969 C 330.679688 288.300781 326.835938 289.460938 328.285156 286.785156 C 328.941406 284.789062 331.652344 285.886719 331.3125 284.523438 C 328.71875 283.238281 330.246094 282.554688 330.886719 280.5 C 331.234375 278.886719 333.425781 278.742188 333.484375 276.847656 C 334.238281 274.050781 337.042969 272.015625 338.5 269.480469 C 339.863281 267.007812 342.277344 270.863281 343.367188 268.066406 C 343.683594 267.382812 344.929688 267.027344 345.5625 266.257812 Z M 387.421875 273.5 C 387.609375 275.230469 385.800781 275.878906 385.296875 277.265625 C 381.453125 278.308594 384.863281 272.808594 387.421875 273.5 Z M 397.414062 275.734375 C 401.210938 272.5 399.238281 278.894531 398.882812 280.695312 C 396.339844 280.832031 396.742188 277.300781 397.414062 275.734375 Z M 437.167969 275.621094 L 437.253906 275.707031 C 437.203125 275.714844 437.160156 275.722656 437.109375 275.734375 C 437.132812 275.699219 437.160156 275.664062 437.167969 275.621094 Z M 157.800781 323.09375 C 156.90625 322.871094 156.050781 322.84375 155.226562 322.957031 C 153.511719 323.007812 151.746094 324.320312 150.109375 323.425781 C 152.105469 321.820312 154.722656 321.925781 157.023438 320.953125 C 158.953125 318.207031 149.367188 322.214844 148.371094 321.039062 C 148.496094 318.164062 154.601562 319.492188 155.769531 317.089844 C 152.742188 316.246094 149.734375 318.105469 147.082031 317.8125 C 147.941406 315.425781 151.960938 315.714844 154.101562 314.804688 C 151.261719 313.421875 145.828125 316.253906 145.136719 314.710938 C 145.070312 312.347656 152.828125 313.097656 153.453125 311.171875 C 151.046875 310.257812 147.753906 311.949219 145.136719 312.238281 C 143.585938 312.648438 142.425781 312.433594 141.25 311.351562 C 135.492188 305.800781 127.1875 305.882812 119.828125 307.34375 C 111.113281 308.640625 101.300781 311.785156 96.242188 319.527344 C 93.222656 323.96875 84.507812 336.222656 94.546875 337.214844 C 98.835938 336.804688 102.84375 335.175781 106.851562 333.707031 C 110.945312 331.796875 113.722656 337.101562 112.394531 340.417969 C 110.6875 344.351562 106.679688 351.480469 113.492188 352.671875 C 119.761719 351.503906 127.351562 351.121094 132.679688 347.546875 C 136.109375 344.914062 141.042969 345.21875 145.144531 343.738281 C 144.523438 342.925781 143.621094 343.234375 143.089844 342.832031 C 140.703125 340.402344 137.660156 343.683594 135.117188 342.234375 C 136.390625 339.660156 139.484375 340.941406 142.453125 338.96875 C 139.765625 338.945312 138.078125 338.925781 135.910156 338.910156 C 139.007812 336.890625 142.476562 337.375 145.429688 335.160156 C 143.527344 333.9375 132.074219 338.78125 133.769531 335.832031 C 135.296875 334.332031 153.007812 332.855469 143.679688 331.535156 C 147.089844 329.453125 151.105469 329.070312 155.070312 327.671875 C 153.203125 326.484375 149.9375 328.566406 149.316406 326.605469 C 150.816406 323.945312 155.582031 325.421875 157.800781 323.09375 Z M 145.265625 328.191406 C 140.679688 330.65625 132.816406 330.503906 130.820312 336.085938 C 131.316406 339.3125 128.152344 340.847656 128.527344 343.90625 C 130.292969 343.4375 130.191406 341.238281 131.757812 341.144531 C 133.726562 343.496094 132.253906 346.660156 129.234375 347.191406 C 125.109375 347.566406 111.214844 354.683594 111.523438 346.976562 C 113.742188 342.378906 117.320312 333.324219 110.398438 331.203125 C 105.050781 331.132812 100.394531 334.484375 95.160156 335.175781 C 92.347656 335.789062 91.679688 332.335938 92.492188 330.332031 C 96.710938 319.585938 105.726562 310.796875 117.699219 309.796875 C 127.921875 306.761719 139.304688 308.347656 144.4375 318.667969 C 145.84375 321.363281 148.863281 326.027344 145.265625 328.191406 Z M 256.101562 272.894531 C 245.46875 279.738281 259.625 273.507812 263.007812 273.25 C 274.453125 271.75 285.980469 271.5625 297.289062 268.960938 C 297.960938 268.867188 297.808594 267.929688 297.355469 267.777344 C 296.078125 267.5625 293.699219 268.996094 293.253906 267.179688 C 300.742188 260.554688 301.484375 256.886719 312.132812 253.316406 C 308.742188 253.238281 305.839844 254.679688 302.082031 256.113281 C 303.539062 249.929688 308.65625 246.859375 311.46875 241.613281 C 313.089844 234.894531 289.109375 247.183594 285.488281 247.386719 C 271.390625 253.433594 244.148438 255.601562 238.765625 271.765625 C 242.414062 274.386719 252.425781 269.011719 256.101562 272.894531 Z M 248.375 263.46875 C 260.339844 255.914062 274.402344 253.84375 287.34375 248.503906 C 294.363281 245.90625 301.464844 243.21875 308.792969 241.761719 C 309.105469 243.132812 308.269531 243.601562 307.675781 244.15625 C 303.929688 247.617188 301.175781 251.832031 299.359375 256.496094 C 291.277344 275.980469 265.097656 269.875 248.496094 269.429688 C 247.710938 267.171875 262.25 264.398438 264.671875 263 C 267.707031 261.789062 270.75 260.742188 273.855469 259.898438 C 273.863281 259.898438 273.871094 259.898438 273.882812 259.898438 C 273.921875 259.890625 273.976562 259.871094 274.019531 259.855469 C 274.367188 259.761719 274.71875 259.675781 275.066406 259.589844 C 278.402344 259.257812 281.699219 258.667969 284.933594 257.78125 C 285.375 257.664062 293.699219 254.890625 294.824219 254.644531 C 295.898438 254.40625 295.4375 252.769531 294.371094 253 C 291.113281 253.714844 288.042969 255.140625 284.839844 256.042969 C 283.398438 256.453125 281.9375 256.785156 280.472656 257.074219 C 283.183594 255.582031 285.8125 253.878906 288.609375 252.554688 C 289.597656 252.085938 288.734375 250.613281 287.746094 251.082031 C 283.390625 253.144531 273.820312 257.925781 273.429688 258.0625 C 264.261719 263.316406 253.203125 263.640625 243.710938 268.261719 C 244.878906 266.191406 246.3125 264.535156 248.375 263.46875 Z M 255.242188 329.957031 C 255.835938 330.136719 256.589844 330.375 257.296875 329.394531 C 255.648438 327.414062 249.03125 326.734375 249.765625 324.335938 C 256.902344 298.378906 206.898438 296.742188 195.40625 311.425781 C 188.011719 319.554688 196.890625 324.796875 193.128906 326.359375 C 191.253906 326.957031 189.429688 327.628906 187.40625 329 C 189.511719 329.589844 190.894531 328.652344 192.34375 328.378906 C 199.449219 326.699219 204.988281 333.648438 212.332031 332.726562 C 212.894531 333.648438 211.914062 334.542969 212.65625 335.226562 C 213.277344 335.617188 213.628906 335.023438 213.925781 334.542969 C 218.820312 329 226.835938 332.925781 233.070312 331.472656 C 240.640625 330.144531 247.898438 325.367188 255.242188 329.957031 Z M 226.699219 329.660156 C 219.246094 328.292969 211.460938 332.25 204.28125 329.011719 C 200.734375 328.292969 202.808594 326.203125 199.875 325.617188 C 188.277344 320.390625 199.113281 306.21875 208.46875 306.480469 C 208.042969 309.644531 205.542969 308.066406 206.398438 312 C 207.753906 309.226562 210.875 308.554688 211.640625 305.722656 C 212.902344 304.964844 214.292969 305.039062 216.289062 304.785156 C 214.070312 307.242188 211.820312 308.808594 210.542969 311.195312 C 211.914062 312.554688 219 302.347656 221.976562 304.75 C 221.378906 307.105469 216.988281 307.792969 217.421875 310.445312 C 217.550781 310.710938 217.804688 310.683594 218.011719 310.457031 C 221.054688 308.433594 223.9375 303.933594 227.773438 304.28125 C 237.410156 305.152344 251.667969 311.914062 248.15625 323.585938 C 244.230469 328.464844 232.847656 330.066406 226.699219 329.660156 Z M 299.804688 212.605469 C 308.851562 211.410156 311.410156 219.9375 319.117188 221.210938 C 327.609375 222.285156 336.214844 222.351562 344.265625 225.679688 C 346.003906 226.351562 347.820312 226.554688 349.722656 226.273438 C 357.59375 224.066406 363.144531 229.089844 368.097656 227.375 C 364.3125 225.566406 360.996094 223.808594 357.113281 223.554688 C 365.191406 211.804688 349.472656 204.53125 339.777344 202.59375 C 334.542969 200.71875 330.144531 195.609375 324.003906 197.136719 C 313.257812 198.917969 308.886719 200.019531 307.589844 211.589844 C 303.878906 211.488281 300.09375 209.792969 296.324219 212.164062 C 297.578125 213.144531 298.730469 212.613281 299.804688 212.605469 Z M 315.699219 200.964844 C 321.453125 199.492188 327.953125 197.625 332.597656 201.214844 C 337.578125 205.042969 343.933594 205.425781 349.535156 207.957031 C 355 209.84375 361.675781 219.648438 353.480469 222.316406 C 349.234375 223.957031 349.882812 225.019531 343.753906 222.921875 C 338.371094 221.082031 332.828125 219.707031 327.023438 219.84375 C 324.761719 219.894531 322.46875 219.519531 320.234375 219.085938 C 311.066406 217.960938 306.308594 204.921875 315.699219 200.964844 Z M 173.839844 286.332031 C 167.207031 283.621094 158.132812 282.28125 152.566406 287.796875 C 152.222656 288.164062 151.761719 288.097656 151.457031 287.746094 C 152.683594 279.550781 168.203125 281.769531 173.976562 284.003906 C 178.222656 285.445312 182.460938 288.234375 187.082031 286.828125 C 194.5 285.230469 203.589844 281.25 210.730469 284.5 C 204.886719 285.898438 198.613281 285.292969 192.769531 287.527344 C 183.269531 290.246094 183.066406 290.210938 173.839844 286.332031 Z M 364.03125 306.5 C 364.011719 306.488281 363.996094 306.488281 363.988281 306.480469 C 363.996094 306.472656 364.011719 306.464844 364.023438 306.457031 L 363.980469 306.226562 C 363.980469 306.234375 364.082031 306.414062 364.066406 306.421875 C 364.066406 306.421875 364.074219 306.421875 364.074219 306.414062 Z M 372.6875 307.027344 C 373.597656 307.128906 374.648438 306.039062 375.636719 305.492188 C 375.765625 305.613281 375.890625 305.722656 376.019531 305.84375 C 374.785156 308.167969 372.25 309.261719 370.722656 311.324219 C 370.46875 311.664062 369.699219 311.71875 369.15625 311.75 C 357.039062 311.785156 344.109375 318.488281 332.632812 312.28125 C 330.59375 311.289062 328.652344 310.839844 326.492188 311.757812 C 324.875 312.3125 324.652344 310.882812 326.339844 310.414062 C 333.085938 308.195312 338.789062 314.632812 345.78125 313.175781 C 348.074219 313.003906 350.328125 312.945312 352.152344 311.222656 C 352.484375 310.90625 353.191406 310.984375 353.730469 310.890625 C 355.84375 315.75 361.039062 305.339844 363.988281 306.472656 C 362.691406 307.847656 360.371094 308.742188 360.484375 310.992188 C 363.347656 310.574219 365.191406 307.835938 367.9375 306.847656 C 367.75 308.289062 366.402344 308.75 365.574219 309.652344 C 364.960938 312.050781 367.851562 309.140625 368.550781 308.808594 C 369.847656 308.109375 370.808594 306.824219 372.6875 307.027344 Z M 353.746094 310.898438 C 353.738281 310.898438 353.730469 310.898438 353.722656 310.898438 C 353.703125 310.871094 353.6875 310.839844 353.671875 310.8125 Z M 69.117188 359.488281 C 56.089844 371.757812 67.761719 388.410156 61.101562 399.417969 C 61.613281 386.5 56.457031 371.492188 65.222656 360.082031 C 65.679688 358.609375 69.910156 356.765625 69.117188 359.488281 Z M 436.714844 252.605469 C 441.183594 255.753906 448.332031 248.316406 442.523438 246.816406 C 438.730469 244.558594 445.03125 243.363281 444.679688 241.273438 C 439.179688 234.179688 429.785156 249.058594 436.714844 252.605469 Z M 439.992188 242.246094 C 439.417969 245.683594 437.578125 248.742188 441.867188 249.503906 C 443.453125 254.003906 430.191406 250.621094 439.992188 242.246094 Z M 209.304688 262.949219 C 214.601562 264.238281 223.519531 262.351562 221.421875 255.984375 C 220.824219 253.289062 220.261719 250.21875 216.742188 250.644531 C 215.332031 250.714844 213.945312 251.175781 212.527344 251.320312 C 207.035156 251.601562 202.621094 261.277344 209.304688 262.949219 Z M 207.890625 257.621094 C 208.871094 255.308594 210.300781 253.441406 213.074219 253.109375 C 214.839844 253.117188 218.105469 251.21875 218.652344 253.886719 C 218.539062 256.070312 221.472656 258.414062 218.820312 259.949219 C 216.125 262.140625 206.441406 263.035156 207.890625 257.621094 Z M 304.691406 310.769531 C 302.53125 308.84375 304.621094 306.882812 303.019531 307.035156 C 301.808594 307.46875 300.820312 306.710938 299.726562 306.558594 C 294.253906 305.007812 289.914062 314.675781 297.050781 315.914062 C 300.375 316.289062 307.410156 315.683594 304.691406 310.769531 Z M 302.40625 313.804688 C 298.796875 315.273438 292.316406 312.859375 297.109375 309.125 C 299.488281 307 305.890625 312.082031 302.40625 313.804688 Z M 152.359375 276.917969 C 157.851562 275.222656 151.96875 272.816406 154.9375 269.925781 C 156.324219 268.46875 154.355469 267.179688 153.316406 266.199219 C 147.96875 263.46875 144.59375 279.441406 152.359375 276.917969 Z M 151.199219 269.53125 C 151.636719 269.117188 151.753906 269.628906 152.171875 270.003906 C 150.910156 271.316406 151.363281 272.800781 151.917969 274.308594 C 151.882812 274.75 150.917969 275.023438 150.636719 274.617188 C 149.453125 273.019531 150.050781 270.972656 151.199219 269.53125 Z M 299.234375 288.914062 C 295.933594 289.070312 293.035156 290.75 289.683594 291.816406 C 291.269531 288.820312 294.652344 289.65625 295.898438 286.714844 C 292.871094 287.414062 290.570312 289.4375 287.761719 290.253906 C 287.773438 290 287.78125 289.742188 287.789062 289.488281 L 287.703125 289.5625 C 286.261719 289.691406 278.433594 294.015625 278.347656 295.300781 C 280.003906 296.359375 283.464844 293.238281 285.894531 293.835938 C 290.96875 294.253906 294.976562 291.304688 299.25 288.941406 C 299.234375 288.933594 299.234375 288.925781 299.234375 288.914062 Z M 286.996094 291.242188 C 286.910156 290.757812 287.082031 290.441406 287.617188 290.363281 C 287.414062 290.65625 287.199219 290.945312 286.996094 291.242188 Z M 77.234375 448.945312 C 76.84375 448.527344 76.714844 447.921875 77.246094 447.425781 C 78.558594 446.320312 79.761719 448.261719 80.867188 448.824219 C 85.4375 452.84375 88.253906 447.851562 92.03125 445.398438 C 90.835938 449.601562 86.617188 454.367188 82.046875 452.433594 C 80.195312 451.648438 78.609375 450.410156 77.234375 448.945312 Z M 251.558594 227.222656 C 258.234375 223.109375 266.582031 221.804688 274.152344 224.132812 C 265.492188 224.304688 258.789062 224.382812 251.105469 229.601562 C 249.628906 229.53125 250.722656 227.570312 251.558594 227.222656 Z M 472.054688 269.234375 C 466.78125 269.898438 462.808594 272.757812 459.382812 276.59375 C 458.351562 277.386719 458 278.410156 456.429688 278.152344 C 459.996094 272.457031 465.136719 267.75 471.976562 267.707031 C 473.023438 267.511719 473.085938 269.242188 472.054688 269.234375 Z M 86.128906 360.832031 C 81.054688 358.316406 81.5 350.933594 83.164062 346.328125 C 85.328125 344.605469 84.730469 348.84375 84.59375 349.996094 C 83.511719 353.890625 85.867188 357.066406 86.128906 360.832031 Z M 266.871094 324.910156 C 264.167969 325.609375 262.078125 324.105469 260.304688 325.316406 C 261.507812 325.753906 262.871094 326.257812 265.140625 327.089844 C 261.023438 327.167969 257.664062 327.390625 254.753906 325.949219 C 254.355469 325.335938 255.335938 324.414062 254.378906 323.84375 C 254.550781 323.65625 254.703125 323.3125 254.882812 323.304688 C 258.71875 323.066406 262.480469 323.476562 266.871094 324.910156 Z M 474.3125 256.945312 C 468.820312 259.230469 462.074219 260.714844 456.566406 263.9375 C 459.40625 261.277344 471.6875 253.886719 474.3125 256.945312 Z M 325.820312 322.230469 C 322.714844 321.078125 318.707031 327.320312 323.082031 328.277344 C 326.742188 328.839844 331.917969 322.664062 325.820312 322.230469 Z M 324.019531 326.402344 C 321.914062 325.046875 326.484375 322.800781 326.433594 324.992188 C 325.980469 325.949219 325.171875 326.445312 324.019531 326.402344 Z M 394.925781 233.265625 C 401.8125 224.867188 427.082031 233.410156 407.816406 231.101562 C 403.066406 230.367188 399.5625 232.074219 394.925781 233.265625 Z M 320.320312 281.785156 C 319.808594 281.15625 324.746094 262.839844 325.640625 267.417969 C 325.078125 271.84375 322.835938 275.988281 321.574219 280.269531 C 321.34375 280.890625 321.085938 281.574219 320.320312 281.785156 Z M 253.65625 316.101562 C 256.417969 315.484375 263.863281 315.445312 265.566406 317.675781 C 263.769531 317.753906 252.453125 318.574219 253.65625 316.101562 Z M 194.605469 239.902344 C 190.289062 240.625 185.378906 239.261719 181.234375 242.289062 C 177.148438 240.148438 191.125 236.191406 194.605469 239.902344 Z M 194.699219 239.953125 C 194.664062 239.933594 194.628906 239.917969 194.59375 239.902344 C 194.605469 239.894531 194.613281 239.894531 194.613281 239.882812 Z M 194.699219 239.832031 C 194.699219 239.875 194.699219 239.910156 194.707031 239.953125 C 194.707031 239.953125 194.628906 239.882812 194.628906 239.875 C 194.648438 239.867188 194.671875 239.851562 194.699219 239.832031 Z M 208.085938 235.457031 C 203.429688 236.457031 198.6875 237.011719 194.699219 239.832031 C 194.460938 235.492188 200.121094 235.441406 203.199219 234.9375 C 204.871094 234.699219 206.480469 234.742188 208.085938 235.457031 Z M 455.65625 269.628906 C 452.5 267.152344 469.578125 259.003906 466.78125 263.316406 C 462.960938 265.183594 458.570312 266.386719 455.65625 269.628906 Z M 405.269531 235.382812 C 401.019531 234.460938 397.175781 235.996094 393.246094 237.136719 C 396.492188 234.597656 402.265625 231.261719 405.71875 234.808594 C 405.703125 235.023438 405.378906 235.40625 405.269531 235.382812 Z M 271.492188 321.992188 C 270.257812 322.84375 269.335938 322.25 268.421875 322.179688 C 264.101562 321.265625 260.042969 322.800781 256.195312 319.972656 C 261.660156 319.816406 266.445312 320.757812 271.492188 321.992188 Z M 347.546875 249.347656 C 345.59375 252.4375 340.25 253.792969 338.097656 257.570312 C 337.996094 257.714844 337.535156 257.757812 337.347656 257.664062 C 336.027344 253.605469 344.433594 250.628906 347.546875 249.347656 Z M 314.589844 277.140625 C 314.605469 277.15625 314.632812 277.171875 314.632812 277.171875 C 314.632812 277.171875 314.480469 277.351562 314.480469 277.351562 L 314.539062 277.105469 C 314.554688 277.097656 314.582031 277.089844 314.605469 277.078125 C 314.617188 277.113281 314.617188 277.148438 314.625 277.183594 Z M 314.605469 277.070312 C 315.074219 271.878906 317.515625 266.097656 319.773438 261.601562 C 321.921875 263.011719 315.707031 274.734375 314.605469 277.070312 Z M 194.894531 269.054688 C 195.046875 268.960938 195.378906 269.148438 195.628906 269.199219 C 193.800781 273.019531 188.839844 275.109375 186.714844 279.125 C 183.246094 279.074219 193.195312 269.515625 194.894531 269.054688 Z M 301.953125 225.804688 C 300.9375 227.46875 298.003906 228.730469 300.597656 230.707031 C 300.929688 230.878906 301.203125 231.382812 301.144531 231.714844 C 300.09375 232.789062 298.046875 231.636719 297.835938 230.53125 C 296.503906 228.738281 300.929688 222.335938 301.953125 225.804688 Z M 266.445312 234.539062 C 270.027344 236.355469 268.730469 241.871094 265.585938 238.722656 C 264.75 237.761719 264.28125 234.136719 266.445312 234.539062 Z M 308.859375 248.0625 C 311.953125 245.488281 314.921875 245.65625 318.589844 245.445312 C 315.324219 247.226562 312.5 247.660156 308.859375 248.0625 Z M 398.546875 240.351562 C 402.871094 237.71875 404.234375 237.34375 407.316406 237.929688 C 405.660156 239.339844 403.042969 239.382812 400.996094 240.105469 C 400.21875 240.292969 399.410156 240.761719 398.546875 240.351562 Z M 472.972656 263.632812 C 470.542969 264.382812 468.421875 265.773438 466.246094 266.882812 C 463.550781 265.585938 471.320312 262.550781 472.523438 262.234375 C 473.773438 261.851562 474.304688 263.417969 472.972656 263.632812 Z M 221.386719 272.484375 C 223.347656 272.613281 222.222656 276.160156 222.820312 277.890625 C 222.761719 277.90625 222.710938 277.941406 222.648438 277.964844 C 220.441406 275.953125 219.632812 274.027344 221.386719 272.484375 Z M 107.421875 355.675781 C 107.542969 355.980469 107.660156 356.289062 107.78125 356.59375 C 106.613281 356.765625 98.503906 361.292969 100.429688 358.070312 C 102.636719 356.851562 105.058594 356.375 107.421875 355.675781 Z M 244.148438 341.953125 C 242.144531 343.277344 239.816406 342.789062 237.605469 343.25 C 236.839844 343.414062 235.515625 344.519531 235.320312 342.859375 C 235.195312 341.84375 236.566406 341.929688 237.359375 341.921875 C 239.628906 341.886719 241.886719 341.9375 244.148438 341.953125 Z M 309.175781 327.355469 C 309.269531 327.414062 309.304688 327.570312 309.363281 327.679688 C 309.074219 329.148438 306.472656 330.972656 305.167969 329.324219 C 304.65625 327.449219 308.007812 326.402344 309.175781 327.355469 Z M 320.132812 242.253906 C 317.4375 242.375 315.007812 243.644531 312.175781 243.941406 C 314.042969 241.792969 314.042969 241.792969 320.132812 242.253906 Z M 165.6875 304.808594 C 165.757812 306.464844 161.417969 310.949219 161.59375 307.597656 C 162.515625 306.089844 164.042969 305.433594 165.6875 304.808594 Z M 204.273438 240.675781 C 202.507812 242.671875 199.875 242.417969 198.015625 243.808594 C 199.175781 241.230469 200.878906 240.421875 204.273438 240.675781 Z M 319.78125 290.773438 C 320.125 289.019531 320.023438 285.710938 321.828125 285.078125 C 322.902344 286.902344 321.097656 289.359375 319.78125 290.773438 Z M 65.484375 413.882812 C 66.039062 415.101562 65.441406 418.453125 63.609375 417.035156 C 62.585938 416.054688 64.460938 412.441406 65.484375 413.882812 Z M 416.113281 240.796875 C 414.699219 240.761719 413.292969 240.667969 410.84375 240.539062 C 412.507812 238.714844 418.648438 238.996094 416.113281 240.796875 Z M 318.019531 277.710938 C 317.320312 276.652344 317.550781 273.191406 319.03125 272.933594 C 320.183594 273.15625 319.152344 278.425781 318.019531 277.710938 Z M 104.445312 306.011719 C 103.917969 306.984375 103.839844 308.179688 102.527344 308.1875 C 98.664062 307.964844 104.546875 304.109375 104.445312 306.011719 Z M 197.203125 339.53125 C 198.238281 340.335938 196.214844 342.21875 195.226562 342.457031 C 192.90625 342.160156 195.667969 338.96875 197.203125 339.53125 Z M 308.910156 250.535156 C 309.140625 248.871094 312.535156 248.921875 314.625 249.1875 C 312.3125 249.953125 310.675781 251.25 308.910156 250.535156 Z M 123.273438 294.046875 C 122.703125 294.382812 122.140625 294.789062 121.519531 295.046875 C 118.175781 295.574219 120.75 290.542969 123.273438 294.046875 Z M 280.277344 283.578125 C 278.84375 282.765625 280.882812 280.867188 281.648438 280.125 C 281.835938 279.875 282.621094 280.59375 282.714844 280.34375 C 282.707031 280.371094 282.699219 280.429688 282.699219 280.566406 C 282.664062 281.871094 281.625 283.152344 280.277344 283.578125 Z M 128.96875 300.894531 C 128.980469 301.945312 127.84375 302.429688 126.921875 302.515625 C 124.007812 301.535156 128.007812 299.027344 128.96875 300.894531 Z M 263.300781 311.546875 C 260.554688 311.691406 258.667969 312.605469 256.230469 311.757812 C 258.574219 310.378906 260.519531 311 263.300781 311.546875 Z M 237.71875 244.292969 C 238.65625 244.105469 241.289062 245.339844 239.773438 246.46875 C 238.5 247.019531 235.824219 245.316406 237.71875 244.292969 Z M 306.003906 276.789062 C 306.011719 274.792969 306.710938 272.289062 308.5 272.765625 C 308.78125 274.207031 307.230469 275.367188 306.003906 276.789062 Z M 68.214844 410.050781 C 66.722656 409.96875 67.269531 407.484375 68.402344 407.453125 C 70.046875 407.453125 69.816406 410.144531 68.214844 410.050781 Z M 141.097656 299.539062 C 142.417969 299.789062 141.574219 301.824219 140.4375 301.742188 C 138.757812 301.46875 139.636719 299.070312 141.097656 299.539062 Z M 180.621094 311.273438 C 181.140625 310.105469 181.984375 309.515625 183.261719 309.757812 C 185.273438 310.738281 181.683594 312.433594 180.621094 311.273438 Z M 284.003906 327.152344 C 285.222656 326.359375 286.40625 325.4375 288.230469 325.523438 C 287.046875 327.210938 285.589844 327.363281 284.003906 327.152344 Z M 283.875 327.144531 C 283.917969 327.152344 283.960938 327.152344 284.003906 327.160156 C 283.960938 327.183594 283.917969 327.210938 283.875 327.246094 C 283.882812 327.253906 283.867188 327.382812 283.867188 327.382812 L 283.867188 327.246094 Z M 329.121094 240.539062 C 329.640625 239.585938 331.285156 240.464844 330.9375 241.480469 C 330.296875 242.648438 328.308594 241.710938 329.121094 240.539062 Z M 179.757812 276.933594 C 178.871094 276.355469 179.359375 275.074219 180.152344 274.640625 C 181.984375 273.96875 181.027344 277.199219 179.757812 276.933594 Z M 136.125 285.640625 C 135.527344 286.230469 134.90625 286.792969 134.273438 287.378906 C 132.644531 286.128906 135.851562 283.808594 136.125 285.640625 Z M 272.097656 283.175781 C 270.640625 283.40625 270.8125 281.265625 272.097656 281.242188 C 273.4375 281.273438 273.464844 282.851562 272.097656 283.175781 Z M 392.402344 213.65625 C 393.601562 213.664062 393.839844 215.742188 392.433594 215.605469 C 391.316406 215.453125 391.097656 213.773438 392.402344 213.65625 Z M 348.621094 228.089844 C 348.75 227.253906 350.421875 227.382812 350.457031 228.195312 C 350.480469 229.363281 348.382812 229.242188 348.621094 228.089844 Z M 370.605469 235.46875 C 370.359375 236.449219 370.007812 236.890625 369.402344 236.761719 C 367.664062 235.96875 369.53125 234.273438 370.605469 235.46875 Z M 358.589844 241.25 C 360.621094 241.546875 357.328125 244.351562 357.132812 242.449219 C 357.191406 241.574219 357.847656 241.332031 358.589844 241.25 Z M 178.640625 273.652344 C 177.949219 275.902344 175.417969 274.84375 177.839844 273.386719 C 178.136719 273.175781 178.394531 273.242188 178.640625 273.652344 Z M 72.390625 346.925781 C 71.207031 347.011719 70.875 345.449219 72.136719 345.21875 C 73.492188 344.800781 73.9375 347.011719 72.390625 346.925781 Z M 71.710938 374.996094 C 71.429688 376.660156 69 376.738281 69.628906 374.816406 C 70.089844 373.941406 71.464844 373.871094 71.710938 374.996094 Z M 259.9375 291.023438 C 260.058594 289.980469 262.027344 289.777344 261.910156 291.082031 C 261.722656 292.0625 259.855469 292.179688 259.9375 291.023438 Z M 341.742188 233.566406 C 342.941406 233.292969 343.179688 234.570312 342.3125 235.132812 C 341.125 235.476562 340.914062 233.964844 341.742188 233.566406 Z M 89.914062 370.195312 C 88.714844 370.1875 88.988281 368.3125 90.113281 368.457031 C 91.160156 368.398438 91.1875 370.296875 89.914062 370.195312 Z M 144.625 289.988281 C 145.742188 289.835938 145.46875 292.121094 144.292969 291.660156 C 143.21875 291.421875 143.902344 290.167969 144.625 289.988281 Z M 240.011719 289.460938 C 239.082031 289.734375 238.679688 288.234375 239.652344 288.054688 C 240.566406 287.765625 240.957031 289.300781 240.011719 289.460938 Z M 285.5625 213.644531 C 286.613281 213.144531 287.304688 214.867188 286.28125 215.222656 C 285.246094 215.632812 284.429688 214.011719 285.5625 213.644531 Z M 337.65625 228.109375 C 337.910156 226.617188 339.789062 227.398438 339.890625 228.542969 C 339.328125 229.292969 337.605469 229.285156 337.65625 228.109375 Z M 216.773438 298.515625 C 218.105469 299.257812 216.109375 300.402344 216.167969 298.945312 C 216.230469 298.753906 216.5625 298.660156 216.773438 298.515625 Z M 353.746094 310.832031 C 353.746094 310.855469 353.746094 310.871094 353.746094 310.898438 C 353.746094 310.898438 353.671875 310.820312 353.671875 310.820312 C 353.695312 310.820312 353.722656 310.820312 353.746094 310.832031 Z M 353.746094 310.832031 C 353.617188 309.960938 355.699219 309.003906 355.109375 310.359375 C 354.734375 310.746094 354.285156 310.925781 353.746094 310.832031 Z M 344.09375 227.800781 C 344.777344 227.195312 345.441406 227.871094 345.238281 228.679688 C 344.691406 229.539062 343.234375 228.476562 344.09375 227.800781 Z M 348.808594 234.09375 C 347.71875 235.507812 346.789062 233.035156 348.476562 233.429688 C 348.65625 233.53125 348.699219 233.871094 348.808594 234.09375 Z M 369.792969 229.53125 C 370.671875 229.8125 369.769531 231.117188 369.171875 230.667969 C 368.472656 230.207031 369.011719 229.234375 369.792969 229.53125 Z M 362.332031 198.066406 C 363 198.433594 362.667969 199.480469 361.875 199.414062 C 360.851562 199.097656 361.378906 197.625 362.332031 198.066406 Z M 295.761719 200.085938 C 296.734375 199.832031 297.195312 201.402344 296.058594 201.417969 C 295.171875 201.527344 295.148438 200.402344 295.761719 200.085938 Z M 451.535156 244.941406 C 451.347656 245.078125 451.152344 245.332031 450.992188 245.308594 C 449.667969 245.015625 451.410156 243.464844 451.535156 244.941406 Z M 353.558594 231.058594 C 353.738281 231.210938 354.011719 231.339844 354.078125 231.535156 C 354.113281 233.097656 352.074219 231.597656 353.558594 231.058594 Z M 357.191406 229.488281 C 356.441406 229.207031 356.433594 228.234375 357.3125 228.304688 C 358.242188 228.398438 358.019531 229.4375 357.191406 229.488281 Z M 382.808594 222.003906 C 382.96875 222.394531 382.925781 222.820312 382.535156 222.984375 C 380.847656 223.445312 381.886719 220.785156 382.808594 222.003906 Z M 354.199219 228.039062 C 354.351562 227.910156 354.503906 227.785156 354.675781 227.648438 C 354.8125 227.785156 354.957031 227.910156 355.09375 228.046875 C 354.746094 228.160156 354.429688 228.492188 354.199219 228.039062 Z M 168.65625 261.101562 C 171.613281 259.335938 181.003906 253.527344 180.996094 257.339844 C 179.375 257.585938 177.875 258.175781 176.371094 258.796875 C 174.054688 259.992188 171.757812 261.234375 169.515625 262.582031 C 168.570312 263.136719 167.71875 261.664062 168.65625 261.101562 Z M 423.523438 255.480469 L 423.53125 255.222656 L 423.796875 255.359375 Z M 437.175781 275.628906 C 437.226562 275.636719 437.269531 275.636719 437.320312 275.648438 C 437.296875 275.671875 437.277344 275.691406 437.253906 275.714844 C 437.261719 275.714844 437.167969 275.621094 437.175781 275.628906 Z M 438.175781 275.195312 C 438.660156 275.773438 437.6875 275.734375 437.320312 275.648438 C 437.542969 275.441406 437.832031 274.992188 438.175781 275.195312 Z M 368.191406 306.769531 C 368.167969 306.78125 367.996094 306.804688 367.9375 306.855469 C 367.9375 306.847656 367.945312 306.832031 367.945312 306.824219 C 367.996094 306.8125 368.132812 306.78125 368.191406 306.769531 Z M 376.011719 305.84375 C 375.882812 305.722656 375.753906 305.613281 375.628906 305.492188 C 376.070312 304.332031 377.238281 305.492188 376.011719 305.84375 Z M 434.328125 266.445312 C 434.34375 266.464844 434.414062 266.523438 434.414062 266.523438 C 434.371094 266.515625 434.320312 266.515625 434.277344 266.507812 C 434.292969 266.488281 434.3125 266.472656 434.328125 266.445312 Z M 287.695312 289.5625 L 287.738281 289.351562 C 287.738281 289.351562 287.761719 289.496094 287.773438 289.488281 C 287.78125 289.488281 287.695312 289.5625 287.695312 289.5625 Z M 452.371094 185.703125 C 451.476562 185.078125 452.542969 184.03125 453.265625 183.964844 C 460.839844 182.546875 464.140625 189.496094 467.609375 194.699219 C 460.472656 194.878906 463.089844 185.488281 452.371094 185.703125 Z M 429.808594 172.085938 C 427.90625 174.558594 424.503906 184.441406 422.203125 184.703125 C 421.195312 183.953125 429.585938 166.761719 429.808594 172.085938 Z M 493.636719 197.691406 C 491.5625 201.007812 489.3125 205.316406 486.445312 207.839844 C 484.65625 207.574219 492.347656 194.5625 493.636719 197.691406 Z M 414.484375 173.933594 C 413.164062 172.160156 421.09375 161.628906 423.277344 161.597656 C 423.4375 161.929688 423.730469 162.390625 423.414062 162.714844 C 419.753906 165.886719 417.871094 170.8125 414.484375 173.933594 Z M 425.390625 170.875 C 424.460938 175.101562 421.324219 178.351562 420.429688 182.632812 C 420.386719 182.792969 419.984375 182.871094 419.753906 182.992188 C 419.652344 182.886719 419.457031 182.777344 419.464844 182.683594 C 418.765625 181.59375 424.8125 167.214844 425.390625 170.875 Z M 455.988281 208.820312 C 456.03125 208.886719 456.0625 208.957031 456.117188 209.023438 C 456.148438 209.066406 456.199219 209.09375 456.242188 209.125 C 453.039062 212.707031 450.828125 218.15625 446.871094 220.613281 C 445.199219 219.667969 454.222656 209.339844 455.988281 208.820312 Z M 392.578125 169.125 C 392.570312 169.117188 392.5625 169.117188 392.5625 169.109375 C 394.414062 160.28125 401.414062 155.25 394.574219 168.160156 C 394.277344 168.742188 393.875 169.167969 393.296875 169.425781 C 393.058594 169.3125 392.816406 169.21875 392.578125 169.125 Z M 459.464844 216.179688 C 459.476562 216.1875 459.484375 216.195312 459.484375 216.195312 C 458.050781 217.550781 451.152344 228.542969 451.5625 223.757812 C 453.753906 220.867188 455.988281 218.003906 459.464844 216.179688 Z M 491.035156 224.738281 C 491.058594 223.109375 497.550781 210.054688 498.136719 214.277344 C 495.792969 217.773438 493.414062 221.253906 491.035156 224.738281 Z M 501.265625 235.65625 C 501.113281 235.535156 500.96875 235.40625 500.816406 235.289062 C 502.179688 232.679688 504.34375 225.710938 507.578125 225.898438 C 506.144531 229.113281 503.78125 232.832031 501.265625 235.65625 Z M 421.835938 170.925781 C 419.261719 173.933594 418.339844 178.105469 415.996094 181.082031 C 414.375 179.835938 421 167.292969 421.835938 170.925781 Z M 505.488281 217.5 C 506.210938 213.5 508.292969 211.597656 510.136719 209.570312 C 512.882812 209.628906 506.886719 215.8125 505.488281 217.5 Z M 505.539062 210.226562 C 505.503906 210.21875 505.472656 210.21875 505.4375 210.210938 C 506.425781 207.898438 509.425781 202.449219 510.773438 204.128906 C 509.28125 206.339844 508.089844 208.785156 505.90625 210.421875 C 505.792969 210.335938 505.675781 210.269531 505.539062 210.226562 Z M 409.414062 196.660156 C 409.335938 196.402344 409.265625 196.148438 409.328125 195.945312 C 410.144531 193.292969 411.253906 190.769531 413.019531 187.960938 C 412.976562 190.605469 412.414062 192.003906 409.683594 196.703125 C 409.601562 196.683594 409.507812 196.675781 409.414062 196.660156 Z M 468.503906 231.433594 C 466.390625 231.691406 464.371094 227.734375 466.082031 226.386719 C 466.980469 226.460938 469.308594 230.878906 468.503906 231.433594 Z M 512.121094 225.421875 C 513.179688 224.925781 513.996094 226.605469 512.734375 226.835938 C 511.839844 227.066406 511.234375 225.832031 512.121094 225.421875 Z M 396.527344 150.015625 C 397.515625 149.792969 397.746094 151.390625 396.722656 151.339844 C 395.914062 151.296875 395.761719 150.304688 396.527344 150.015625 Z M 331.363281 154.859375 C 331.59375 154.773438 331.832031 154.699219 332.0625 154.613281 C 332.453125 154.742188 332.855469 154.917969 332.726562 155.40625 C 332.300781 156.453125 331.472656 155.644531 331.363281 154.859375 Z M 409.632812 157.996094 C 409.828125 157.152344 410.5625 157.828125 410.613281 158.398438 C 410.324219 159.207031 409.566406 158.628906 409.632812 157.996094 Z M 541.949219 215.164062 C 542.71875 215.242188 542.957031 215.992188 542.25 216.375 C 541.53125 216.75 541.320312 215.394531 541.949219 215.164062 Z M 525.039062 228.738281 C 525.859375 228.96875 525.449219 229.847656 524.757812 229.933594 C 523.984375 229.660156 524.324219 228.664062 525.039062 228.738281 Z M 526.574219 216.398438 C 527.566406 216.078125 527.949219 217.609375 526.875 217.757812 C 526.011719 217.851562 525.988281 216.683594 526.574219 216.398438 Z M 513.203125 236.414062 C 513 236.269531 512.675781 236.148438 512.617188 235.960938 C 512.488281 234.09375 515.113281 235.9375 513.203125 236.414062 Z M 381.347656 140.917969 C 381.058594 141.113281 380.871094 141.34375 380.660156 141.359375 C 378.910156 141.078125 380.308594 138.921875 381.347656 140.917969 Z M 464.105469 212.851562 C 464.113281 214.355469 462.238281 213.261719 463.191406 212.382812 C 463.609375 212.152344 463.96875 212.316406 464.105469 212.851562 Z M 503.707031 246.859375 C 502.757812 246.859375 502.820312 245.382812 503.824219 245.632812 C 504.652344 245.785156 504.582031 246.78125 503.707031 246.859375 Z M 505.886719 240.863281 C 506.023438 241.070312 506.152344 241.273438 506.289062 241.480469 C 506.289062 242.347656 504.6875 242.074219 505.222656 241.316406 C 505.386719 241.113281 505.667969 241.011719 505.886719 240.863281 Z M 456.941406 225.0625 C 456.421875 224.757812 456.636719 224.246094 457.128906 223.964844 C 457.796875 224.261719 457.785156 225.269531 456.941406 225.0625 Z M 437.152344 215.324219 C 438.21875 215.113281 438.164062 216.84375 437.117188 216.527344 C 436.671875 216.359375 436.671875 215.472656 437.152344 215.324219 Z M 385.261719 143.347656 C 385.859375 142.863281 386.695312 143.023438 386.550781 143.929688 C 386.140625 144.898438 385.570312 143.742188 385.261719 143.347656 Z M 432.503906 166.117188 C 433.125 166.414062 433.082031 167.515625 432.257812 167.140625 C 431.746094 166.753906 431.832031 166.304688 432.503906 166.117188 Z M 397.609375 182.4375 C 397.507812 182.667969 397.414062 182.898438 397.3125 183.136719 C 397.089844 183.023438 396.808594 182.957031 396.671875 182.777344 C 396.289062 182.078125 397.21875 182.105469 397.609375 182.4375 Z M 447.742188 169.050781 C 448.507812 168.980469 448.550781 169.425781 448.246094 170.003906 C 447.777344 169.925781 446.878906 169.269531 447.742188 169.050781 Z M 414.691406 206.234375 C 414.496094 206.089844 414.296875 205.953125 414.101562 205.808594 C 414.554688 205.316406 414.886719 205.382812 415.339844 205.828125 C 415.117188 205.964844 414.902344 206.097656 414.691406 206.234375 Z M 426.960938 165.628906 C 426.960938 165.75 427.019531 165.910156 426.96875 165.960938 C 426.296875 166.574219 426.210938 165.066406 426.960938 165.628906 Z M 435.933594 164.382812 C 435.054688 163.464844 436.46875 163.046875 436.238281 164.101562 C 436.136719 164.195312 436.035156 164.289062 435.933594 164.382812 Z M 328.796875 167.214844 C 328.820312 166.746094 329.53125 167.019531 329.113281 167.308594 C 329.070312 167.34375 328.90625 167.25 328.796875 167.214844 Z M 340.207031 154.65625 C 339.832031 154.28125 339.898438 153.308594 340.453125 153.972656 C 340.402344 154.210938 340.289062 154.433594 340.207031 154.65625 Z M 514.425781 244.863281 C 514.550781 244.710938 514.679688 244.558594 514.816406 244.402344 C 514.96875 244.558594 515.132812 244.695312 515.261719 244.863281 C 515.125 245.324219 514.714844 245 514.425781 244.863281 Z M 520.65625 239.457031 C 521.042969 239.707031 521.152344 240.292969 520.613281 240.414062 C 520.09375 240.25 520.511719 239.765625 520.65625 239.457031 Z M 482.601562 237.445312 C 482.429688 237.597656 482.269531 237.835938 482.082031 237.871094 C 481.238281 237.351562 481.875 236.941406 482.601562 237.445312 Z M 441.378906 172.785156 C 440.867188 172.074219 441.253906 171.503906 441.839844 172.347656 C 441.679688 172.492188 441.527344 172.640625 441.378906 172.785156 Z M 510.648438 248.574219 C 510.085938 248.480469 510.511719 248.003906 510.628906 247.6875 C 511.046875 247.867188 511.175781 248.460938 510.648438 248.574219 Z M 428.453125 207.78125 C 428.648438 208.496094 427.558594 208.007812 428.222656 207.667969 C 428.273438 207.644531 428.386719 207.738281 428.453125 207.78125 Z M 467.628906 194.75 C 467.628906 194.734375 467.617188 194.714844 467.609375 194.691406 C 467.644531 194.679688 467.679688 194.671875 467.703125 194.664062 C 467.703125 194.664062 467.804688 194.871094 467.804688 194.871094 Z M 435.453125 175.078125 L 435.34375 174.769531 L 435.625 174.804688 Z M 498.324219 264.679688 C 499.304688 265.484375 495.253906 278.964844 493.644531 280.816406 C 493.542969 280.804688 493.4375 280.804688 493.328125 280.804688 C 494.375 275.398438 495.707031 270.070312 498.324219 264.679688 Z M 408.78125 318.503906 C 407.238281 318.847656 412.21875 307.675781 412.832031 308.261719 C 414.65625 309.140625 409.921875 317.328125 408.78125 318.503906 Z M 356.714844 328.363281 C 357.761719 330.648438 353.132812 334.390625 352.824219 337.332031 C 349.390625 340.472656 355.121094 327.628906 356.714844 328.363281 Z M 343.0625 336.90625 C 343.097656 337.527344 334.671875 342.757812 335.824219 340.222656 C 337.953125 339.3125 340.828125 334.953125 343.0625 336.90625 Z M 461.777344 289.597656 C 461.351562 290.535156 460.992188 291.609375 460.40625 292.53125 C 459.816406 293.445312 460.472656 295.105469 458.742188 295.3125 C 458.410156 293.519531 459.441406 289.375 461.503906 289.164062 C 461.582031 289.164062 461.640625 289.375 461.777344 289.597656 Z M 471.300781 288.632812 C 471.269531 288.609375 471.234375 288.589844 471.191406 288.566406 C 472 286.230469 472.726562 282.851562 474.78125 281.546875 C 476.019531 281.734375 472.359375 288.113281 471.300781 288.632812 Z M 371.347656 330.773438 C 371.441406 331.03125 371.535156 331.285156 371.652344 331.609375 C 371.40625 334.28125 369.09375 332.8125 370.671875 331.082031 C 370.828125 330.910156 371.117188 330.871094 371.347656 330.773438 Z M 557.851562 230.453125 C 557.238281 217.609375 553.972656 211.949219 542.929688 204.972656 C 529.558594 197.554688 513.945312 195.527344 500.492188 187.960938 C 479.328125 178.359375 461.15625 162.039062 437.023438 160.386719 C 408.523438 156.273438 383.046875 120.332031 354.140625 132.570312 C 328.667969 143.289062 325.375 152.464844 316.398438 176.621094 C 309.421875 183.136719 299.453125 185.480469 292.15625 191.78125 C 279.363281 199.847656 266.941406 208.707031 252.488281 213.601562 C 213.296875 227.792969 173.3125 228.765625 143.664062 262.242188 C 116.808594 289.742188 77.757812 307.292969 65.304688 346.234375 C 51.449219 377.453125 54.816406 389.722656 57.136719 421.554688 C 56.507812 437.492188 40.304688 468.933594 58.492188 478.390625 C 61.707031 479.617188 63.917969 475.738281 64.027344 472.972656 C 65.203125 466.1875 58.355469 461.839844 58.792969 455.230469 C 57.929688 452.519531 63.804688 437.910156 67.378906 440.683594 C 70.285156 446.257812 72.65625 452.125 77.210938 456.636719 C 82.574219 464.082031 102 462.914062 100.496094 452.457031 C 98.902344 443.546875 81.535156 424.242188 88.152344 415.9375 C 96.175781 400.945312 97.359375 382.015625 112 371.226562 C 113.503906 369.839844 115.378906 369.234375 117.542969 369.523438 C 122.464844 370.179688 127.238281 369.652344 131.699219 367.273438 C 137.589844 365.675781 142.921875 362.984375 147.695312 359.296875 C 161.894531 348.546875 171.648438 361.617188 187.21875 361.300781 C 219.121094 366.28125 250.941406 360.082031 282.894531 359.453125 C 297.585938 357.242188 311.09375 350.355469 325.582031 347.148438 C 343.597656 344.101562 361.386719 339.78125 378.859375 334.605469 C 389.40625 329.15625 401.464844 327.339844 411.636719 321.121094 C 425.425781 312.894531 440.84375 308.074219 456.355469 304.347656 C 476.332031 301.144531 493.25 283.960938 513.808594 284.992188 C 524.871094 284.5 534.890625 283.960938 543.628906 277.496094 C 556.546875 266.070312 559.414062 246.867188 557.851562 230.453125 Z M 359.964844 133.148438 C 360.703125 133.0625 360.152344 133.730469 359.683594 133.628906 C 359.757812 133.429688 359.828125 133.199219 359.964844 133.148438 Z M 320.867188 170.667969 C 323.988281 159.839844 328.898438 148.378906 339.421875 142.863281 L 339.226562 143.007812 C 339.507812 144.976562 337.390625 145.703125 336.941406 147.304688 C 337.605469 148.046875 337.945312 147.304688 338.246094 146.988281 C 342.636719 142.351562 346.601562 135.980469 353.703125 135.808594 C 352.261719 138.5625 342.105469 145.054688 343.199219 148.183594 C 343.546875 148.6875 343.941406 148.257812 344.144531 147.953125 C 347.105469 144.234375 350.421875 140.542969 354.429688 137.976562 C 354.597656 137.53125 354.914062 137.269531 355.390625 137.21875 C 356.375 135.570312 357.414062 134.011719 359.519531 133.738281 C 358.921875 135.699219 357.269531 136.550781 355.632812 137.429688 C 355.5625 137.898438 355.28125 138.199219 354.855469 138.375 C 354.410156 139.273438 352.886719 143.203125 355.152344 141.386719 C 356.671875 139.46875 364.472656 130.652344 366.613281 132.96875 C 365.0625 135.519531 361.769531 137.429688 361.53125 140.515625 C 364.875 138.136719 366.769531 134.941406 370.777344 131.84375 C 368.3125 135.886719 365.15625 139.042969 361.574219 141.359375 C 360.671875 145.113281 356.03125 146.375 355.195312 149.914062 C 355.265625 149.949219 355.332031 150 355.410156 150.035156 C 362.070312 146.445312 367.347656 135.441406 374.46875 133.695312 C 373.34375 138.316406 366.453125 141.113281 365.371094 146.109375 C 365.410156 146.136719 365.445312 146.160156 365.488281 146.1875 C 369.386719 144.304688 374.542969 133.875 378.535156 134.984375 C 377.613281 138.835938 372.308594 140.378906 371.296875 144.3125 C 371.3125 144.320312 371.328125 144.335938 371.347656 144.34375 C 375.421875 143.476562 378.433594 134.820312 382.960938 136.492188 C 392.007812 140.398438 399.570312 146.9375 408.328125 151.421875 C 412.5 152.90625 416.574219 155.191406 420.234375 157.5625 C 419.773438 159.507812 417.632812 160.351562 417.460938 162.730469 C 420.242188 161.324219 421.496094 157.734375 425.007812 159.242188 C 433.800781 162.738281 443.28125 163.601562 452.484375 165.492188 C 467.335938 170.933594 480.058594 180.414062 494.078125 187.808594 C 491.9375 192.285156 487.402344 195.550781 487.238281 200.964844 C 497.71875 183.367188 495.246094 189.4375 511.441406 195.277344 C 525.679688 201.316406 544.148438 202.9375 552.5 217.621094 C 542.597656 220.007812 537.636719 223.894531 530.617188 231.375 C 526.21875 237.359375 522.355469 243.695312 516.496094 248.453125 C 510.160156 254.3125 500.875 252.65625 493.226562 250.902344 C 491.179688 249.859375 495.859375 244.445312 496.824219 242.195312 C 496.816406 242.179688 496.808594 242.160156 496.796875 242.144531 C 496.78125 242.085938 496.773438 242.015625 496.773438 241.957031 C 494.316406 243.695312 492.910156 246.96875 490.972656 249.324219 C 489.3125 252.316406 475.359375 245.800781 472.300781 244.632812 C 459.226562 239.707031 459.195312 234.957031 449.394531 227.945312 C 446.703125 226.769531 449.839844 224.730469 449.71875 222.882812 C 449.457031 222.890625 449.082031 222.796875 448.976562 222.921875 C 447.058594 225.464844 444.84375 225.925781 442.035156 224.269531 C 437.089844 222.574219 431.789062 221.609375 427.0625 219.1875 C 413.53125 213.59375 400.332031 207.660156 388.570312 198.9375 C 377.664062 194.296875 367.433594 188.234375 356.46875 183.691406 C 353.6875 182.921875 356.375 180.492188 356.945312 178.898438 C 357.074219 177.738281 355.675781 178.257812 355.359375 178.972656 C 353.859375 181.796875 351.683594 182.292969 348.585938 181.667969 C 340.761719 180.089844 332.785156 179.1875 324.992188 177.464844 C 317.667969 175.855469 318.886719 176.800781 320.867188 170.667969 Z M 59.421875 476.070312 C 58.28125 475.472656 60.667969 474.527344 60.847656 475.660156 C 60.515625 476.257812 59.984375 476.230469 59.421875 476.070312 Z M 57.410156 471.617188 C 57.613281 472.941406 59.105469 472.855469 60.300781 473.101562 C 55.484375 474.925781 54.835938 472.785156 53.539062 469.777344 C 53.078125 468.472656 52.449219 466.417969 53.683594 466.460938 C 55.023438 466.203125 54.800781 467.421875 55.175781 468.078125 C 56.429688 470.554688 60.078125 468.386719 61.589844 470.101562 C 61.511719 471.96875 58.21875 470.605469 57.410156 471.617188 Z M 60.207031 466.554688 C 61.058594 467.796875 57.070312 468.265625 57.007812 467.082031 C 57.238281 465.886719 59.542969 465.886719 60.207031 466.554688 Z M 64.546875 438.261719 C 59.59375 443.554688 56.046875 449.855469 56.4375 457.335938 C 56.496094 458.605469 55.875 459 54.902344 459.160156 C 54.851562 459.261719 54.792969 459.355469 54.734375 459.449219 C 55.464844 460.824219 58.109375 460.140625 56.632812 462.425781 C 56.632812 462.425781 56.632812 462.433594 56.632812 462.433594 C 56.632812 462.460938 56.625 462.511719 56.625 462.5625 C 56.753906 463.636719 58.714844 463.066406 58.304688 464.464844 C 58.050781 465.25 57.113281 465.019531 56.429688 465.027344 C 54.800781 465.019531 52.53125 465.222656 52.421875 463.007812 C 50.929688 453.617188 55.339844 444.910156 56.558594 435.777344 C 56.515625 432.09375 60.777344 432.128906 59.441406 430.960938 C 58.023438 430.464844 57.855469 429.546875 58.28125 428.316406 C 58.722656 427.023438 58.417969 425.476562 59.636719 424.140625 C 60.691406 428.285156 65.945312 434.730469 64.546875 438.261719 Z M 88.304688 410.402344 C 86.324219 412.601562 82.308594 404.261719 83.675781 402.414062 C 83.785156 401.902344 84.601562 401.644531 84.902344 402.105469 C 85.40625 405.023438 89.320312 407.484375 88.304688 410.402344 Z M 85.105469 416.941406 C 83.742188 414.460938 83.332031 411.9375 83.035156 409.3125 C 84.347656 409.300781 84.636719 410.273438 85.148438 410.898438 C 87.1875 413.351562 87.171875 413.371094 85.105469 416.941406 Z M 90.351562 405.839844 C 88.328125 408.246094 82.984375 397.109375 86.316406 395.589844 C 87.46875 399.375 92.566406 402.148438 90.351562 405.839844 Z M 92.097656 400.144531 C 90.308594 400.648438 89.175781 396.496094 87.851562 395.4375 C 86.589844 393.886719 87.136719 392.75 88.320312 391.675781 C 89.488281 393.859375 90.914062 395.898438 92.558594 397.746094 C 92.839844 398.53125 92.832031 399.316406 92.097656 400.144531 Z M 94.015625 394.125 C 93.222656 395.582031 92.390625 394.261719 91.476562 393.613281 C 91.195312 393.195312 90.929688 392.769531 90.667969 392.332031 C 90.488281 391.726562 90.09375 391.199219 89.855469 390.609375 C 89.199219 389.578125 90.582031 386.902344 91.707031 388.085938 C 92.585938 389.945312 95.015625 391.941406 94.015625 394.125 Z M 96.054688 389.238281 C 94.359375 390.671875 93.089844 387.363281 92.472656 386.089844 C 93.011719 382.5625 96.449219 387.898438 96.054688 389.238281 Z M 97.761719 385.308594 C 97.632812 385.535156 97.367188 385.691406 97.164062 385.878906 C 95.75 385.785156 95.09375 384.035156 95.132812 382.75 C 96.429688 379.816406 98.980469 383.710938 97.761719 385.308594 Z M 99.976562 381.640625 C 98.476562 382.773438 97.523438 379.671875 98.742188 378.816406 C 100.402344 377.222656 101.1875 380.71875 99.976562 381.640625 Z M 102.304688 377.785156 C 100.480469 377.5625 101.878906 374.734375 103.242188 374.628906 C 105.101562 374.886719 103.59375 377.648438 102.304688 377.785156 Z M 105.683594 373.769531 C 104.914062 372.472656 107.191406 371.925781 108.105469 372.234375 C 107.363281 372.695312 106.671875 374.128906 105.683594 373.769531 Z M 170.046875 354.769531 C 163.660156 353.960938 169.867188 350.949219 172.289062 353.261719 C 171.273438 353.363281 171.058594 354.761719 170.046875 354.769531 Z M 172.433594 353.277344 C 173.148438 353.015625 174.617188 351.777344 175.042969 352.902344 C 174.113281 355.460938 171.589844 357.816406 172.433594 353.277344 Z M 176.414062 356.910156 C 173.839844 356.894531 176.152344 352.945312 177.804688 353.175781 C 178.929688 354.25 177.59375 356.28125 176.414062 356.910156 Z M 178.769531 357.753906 C 177.625 356.691406 181.53125 351.453125 182.375 354.371094 C 181.394531 355.417969 180.730469 359.078125 178.769531 357.753906 Z M 183.851562 358.574219 C 180.6875 358.941406 183.144531 354.976562 184.875 354.617188 C 187.195312 354.875 184.789062 357.78125 183.851562 358.574219 Z M 187.476562 358.480469 C 185.328125 359.042969 187.441406 354.949219 188.652344 356.40625 C 188.515625 357.234375 188.113281 357.941406 187.476562 358.480469 Z M 190.476562 359.265625 C 190.066406 359.460938 189.8125 359 189.574219 358.746094 C 190.492188 354.675781 194.023438 356.5625 190.476562 359.265625 Z M 194.136719 359.144531 C 192.644531 359.570312 193.632812 357.039062 194.636719 357.003906 C 195.78125 357.5 194.945312 358.761719 194.136719 359.144531 Z M 197.070312 359.945312 C 195.371094 359.476562 197.792969 356.800781 198.382812 358.105469 C 198.296875 359 197.554688 359.375 197.070312 359.945312 Z M 200.054688 360.542969 C 199.054688 359.65625 200.429688 358.589844 201.324219 358.378906 C 202.285156 358.941406 200.972656 360.671875 200.054688 360.542969 Z M 204.519531 361.132812 C 204.171875 361.132812 203.820312 360.832031 203.539062 360.707031 C 203.703125 355.820312 209.824219 359.503906 204.519531 361.132812 Z M 208.699219 361.277344 C 207.148438 360.601562 209.773438 357.941406 210.753906 359.152344 C 210.855469 360.117188 209.664062 361.355469 208.699219 361.277344 Z M 215.785156 361.207031 C 215.113281 361.804688 212.324219 362.222656 212.289062 360.773438 C 212.921875 357.882812 218.796875 357.96875 215.785156 361.207031 Z M 195.832031 354.957031 C 185.890625 352.910156 175.859375 348.640625 165.585938 350.941406 C 159.257812 352.347656 152.0625 351.742188 147.117188 356.621094 C 132.109375 370.425781 112.742188 360.738281 98.929688 374.851562 C 87.613281 384.4375 76.828125 400.222656 82.171875 415.492188 C 84.058594 418.453125 78.089844 416.703125 79.972656 419.238281 C 80.996094 420.5 78.457031 420.164062 78.726562 421.28125 C 79.855469 423.457031 83.878906 419.464844 84.570312 422.511719 C 84.917969 423.753906 83.273438 423.703125 82.617188 424.285156 C 81.507812 425.625 83.902344 425.425781 84.707031 425.332031 C 85.199219 426.664062 82.855469 426.136719 82.140625 426.578125 C 80.015625 428.328125 84.296875 427.855469 85.277344 427.960938 C 86.835938 428.128906 87.613281 431.132812 85.515625 431.046875 C 80.074219 431.039062 74.796875 429.085938 69.441406 430.789062 C 91.671875 434.054688 84.808594 428.085938 95.875 446.445312 C 103.953125 458.136719 90.691406 462.289062 81.523438 456.824219 C 73.714844 451.390625 70.933594 441.730469 66.347656 433.816406 C 57.75 415.9375 55.023438 394.492188 58.125 374.953125 C 61.578125 356.691406 69.894531 339.363281 78.941406 323.203125 C 88.390625 310.164062 101.699219 300.222656 114.039062 290.042969 C 141.113281 271.75 160.324219 241.5625 193.230469 232.953125 C 215.929688 225.199219 240.097656 222.019531 261.902344 211.683594 C 281.460938 202.722656 298.175781 188.804688 317.507812 179.324219 C 314.71875 182.726562 311.058594 185.507812 308.628906 189.234375 C 308.644531 189.242188 308.664062 189.242188 308.679688 189.257812 C 308.886719 189.394531 309.097656 189.53125 309.3125 189.660156 C 312.714844 187.023438 318.734375 179.144531 321.753906 179.382812 C 321.429688 181.355469 318.8125 181.933594 318.503906 184.097656 C 318.546875 184.117188 318.589844 184.117188 318.632812 184.132812 C 318.71875 184.175781 318.792969 184.226562 318.878906 184.277344 C 321.207031 182.769531 323.558594 178.453125 326.613281 180.117188 C 326.75 182.011719 323.988281 182.898438 323.875 184.882812 C 323.882812 184.882812 323.894531 184.890625 323.894531 184.890625 C 323.910156 184.902344 323.925781 184.910156 323.9375 184.910156 C 325.242188 184.902344 326 183.5625 327.125 183.023438 L 327.066406 182.941406 C 330.074219 185.601562 330.042969 178.4375 334.621094 181.480469 C 333.527344 183.835938 331.011719 185.089844 329.871094 187.449219 C 331.574219 187.835938 332.214844 185.558594 333.390625 184.703125 C 335.609375 182.597656 337.902344 180.664062 341.296875 182.164062 C 349.066406 182.308594 356.089844 184.695312 362.855469 188.457031 C 370.648438 192.660156 378.550781 196.675781 386.710938 200.140625 C 393.527344 204.035156 399.367188 209.433594 406.90625 212.128906 C 416.875 216.347656 426.464844 221.78125 436.980469 224.492188 C 442.675781 225.804688 447.578125 228.679688 452.089844 232.253906 C 456.558594 237.078125 460.5 241.820312 467.003906 243.960938 C 478.667969 251.089844 492.59375 253.246094 505.734375 254.6875 C 496.757812 261.167969 486.335938 267.195312 477.722656 274.804688 C 462.570312 285.964844 445.585938 294.730469 427.769531 300.84375 C 410.324219 307.488281 391.488281 308.09375 373.84375 314.222656 C 357.421875 321.132812 343.359375 332.769531 326.210938 338.425781 C 314.480469 343.328125 301.527344 339.695312 289.390625 342.757812 C 272.738281 346.003906 256.808594 352.042969 240.035156 354.753906 C 225.4375 357.847656 210.464844 357.804688 195.832031 354.957031 Z M 218.617188 361.386719 C 217.234375 360.074219 220.3125 357.910156 221.105469 359.683594 C 220.886719 360.894531 219.664062 361.746094 218.617188 361.386719 Z M 226.460938 361.105469 C 225.515625 361.285156 224.464844 361.414062 223.511719 361.15625 C 221.933594 359.460938 225.976562 358.121094 227.3125 358.480469 C 228.160156 359.121094 227.578125 360.894531 226.460938 361.105469 Z M 230.519531 360.945312 C 229.703125 360.902344 229.308594 360.203125 229.617188 359.726562 C 230.007812 358.796875 232.191406 356.824219 232.378906 358.777344 C 232.019531 359.648438 231.628906 360.96875 230.519531 360.945312 Z M 243.34375 357.628906 C 242.953125 358.796875 243.300781 360.507812 241.597656 360.5 C 239.96875 360.117188 233.742188 362.136719 234.210938 359.621094 C 235.765625 357.269531 237.019531 355.9375 238.273438 359.582031 C 239.660156 358.539062 240.171875 356.84375 241.785156 356.347656 C 242.792969 355.90625 243.976562 356.441406 243.34375 357.628906 Z M 248.871094 357.105469 C 248.214844 359.015625 247.703125 359.851562 245.484375 359.726562 C 243.097656 359.058594 246.3125 356.554688 247.070312 355.5625 C 249.015625 354.027344 250.304688 355.519531 248.871094 357.105469 Z M 506.230469 283.03125 C 500.789062 284.941406 506.410156 276.210938 506.042969 273.464844 C 505.972656 273.429688 505.90625 273.378906 505.847656 273.328125 C 503.296875 275.996094 502.964844 280.542969 501.199219 283.832031 C 495.117188 287.320312 503.144531 270.734375 503.1875 267.035156 C 503.109375 266.992188 503.03125 266.949219 502.957031 266.898438 C 499.960938 271.914062 498.667969 277.964844 497.105469 283.578125 C 496.320312 286.828125 491.324219 287.542969 488.476562 288.539062 C 489.054688 286.605469 489.59375 284.667969 490.0625 282.707031 C 490.070312 282.65625 490.0625 282.613281 490.070312 282.5625 C 490.921875 279.816406 491.835938 277.089844 492.636719 274.324219 C 493.667969 271.589844 491.84375 270.589844 491.1875 273.738281 C 490.828125 276.738281 487.871094 281.761719 487.613281 285.394531 C 487.273438 286.664062 486.90625 287.917969 486.523438 289.171875 C 486.464844 289.367188 486.488281 289.53125 486.539062 289.683594 C 483.316406 291.542969 479.820312 292.847656 476.65625 294.695312 C 475.242188 292.640625 477.28125 291.371094 476.15625 289.34375 C 474.414062 291.523438 475.199219 294.628906 473.246094 296.335938 C 470.398438 297.894531 467.574219 299.515625 464.171875 299.890625 C 463.253906 297.253906 464.777344 294.867188 464.683594 292.394531 C 464.625 292.34375 464.566406 292.292969 464.507812 292.242188 C 458.09375 301.902344 468.609375 300.273438 448.390625 303.878906 C 448.542969 302.636719 449.125 301.519531 449.710938 300.410156 L 449.660156 300.476562 C 449.71875 300.417969 449.675781 300.28125 449.660156 300.222656 L 449.652344 300.496094 C 446.8125 300.265625 447.460938 305.203125 444.628906 305.519531 C 435.496094 307.898438 426.757812 311.410156 418.109375 315.144531 C 406.367188 321.675781 394.300781 327.261719 381.195312 330.570312 C 377 331.464844 362.855469 341 367.628906 330.324219 L 367.570312 330.398438 C 367.664062 330.347656 367.570312 330.1875 367.550781 330.117188 L 367.570312 330.398438 C 365.90625 329.863281 365.148438 333.027344 365.027344 334.101562 C 365.25 336.464844 363.785156 337 362.09375 337.511719 C 349.320312 341.640625 335.855469 342.652344 322.929688 346.089844 C 317.550781 347.105469 311.851562 350.328125 306.617188 350.21875 C 306.746094 348.445312 308.476562 347.308594 308.664062 345.535156 C 308.550781 345.511719 308.449219 345.484375 308.347656 345.425781 C 304.910156 346.976562 305.730469 352.09375 302.242188 352.289062 C 299.480469 351.589844 304.707031 347.574219 304.246094 345.527344 C 304.160156 345.519531 304.066406 345.492188 303.992188 345.46875 C 301.867188 347.625 299.734375 349.730469 298.703125 352.757812 C 298.105469 354.515625 296.339844 354.371094 294.464844 354.15625 C 295.566406 350.941406 298.738281 349.050781 299.070312 345.929688 C 299.0625 345.917969 299.054688 345.917969 299.042969 345.910156 C 299.042969 345.910156 299.042969 345.910156 299.035156 345.902344 C 298.992188 345.851562 298.949219 345.800781 298.917969 345.75 C 294.566406 348.902344 293.339844 356.9375 287.175781 356.375 C 287.371094 353.789062 290.613281 353.015625 290.816406 350.585938 C 290.738281 350.542969 290.679688 350.488281 290.613281 350.4375 C 288.15625 351.699219 286.1875 353.476562 284.949219 356 C 284.625 356.664062 284.285156 357.269531 283.492188 357.363281 C 279.757812 357.535156 284.777344 353.527344 284.871094 351.632812 C 284.820312 351.605469 284.777344 351.566406 284.726562 351.53125 C 282.085938 352.460938 281.050781 355.367188 279.195312 357.242188 C 275.550781 358.34375 279.925781 351.742188 281.835938 349.644531 C 281.8125 349.628906 281.785156 349.613281 281.761719 349.601562 C 281.632812 349.535156 281.53125 349.441406 281.453125 349.320312 C 281.367188 349.226562 281.316406 349.117188 281.28125 348.996094 C 279.476562 349.289062 278.640625 351.726562 277.460938 353.234375 C 277.085938 353.988281 276.730469 354.746094 276.34375 355.496094 C 276.335938 355.605469 276.320312 355.707031 276.292969 355.8125 C 275.730469 357.320312 275.058594 357.695312 274.664062 357.484375 C 274.707031 357.363281 274.75 357.242188 274.792969 357.132812 C 274.835938 357.023438 274.878906 356.910156 274.929688 356.800781 C 274.945312 356.765625 274.957031 356.75 274.957031 356.742188 C 274.957031 356.730469 274.964844 356.714844 274.980469 356.671875 C 275.066406 356.46875 275.160156 356.261719 275.253906 356.058594 C 275.621094 355.265625 276.039062 354.488281 276.5 353.738281 C 276.730469 353.355469 276.59375 352.785156 276.191406 352.570312 C 275.773438 352.347656 275.269531 352.46875 275.023438 352.878906 C 274.164062 354.292969 273.453125 355.8125 272.890625 357.371094 C 272.421875 357.484375 271.953125 357.542969 271.460938 357.566406 C 271.390625 357.566406 271.332031 357.566406 271.273438 357.558594 C 269.925781 358.34375 268.234375 358.242188 263.597656 358.496094 C 259.929688 358.121094 252.945312 360.339844 250.242188 358.4375 C 250.105469 357.328125 251.128906 356.347656 251.71875 355.480469 C 252.28125 354.753906 252.554688 353.285156 253.824219 353.910156 C 254.824219 354.402344 253.757812 355.410156 253.757812 356.195312 C 253.6875 357.023438 254.566406 357.441406 255.042969 356.699219 C 256.078125 355.230469 256.714844 351.964844 259.222656 352.785156 C 259.324219 352.808594 259.367188 353.269531 259.316406 353.5 C 259.230469 354.335938 258.054688 355.5625 258.941406 356.230469 C 261.578125 356.398438 260.261719 350.355469 264.46875 351.242188 C 264.886719 352.878906 262.890625 353.867188 263.777344 355.46875 C 264.902344 355.640625 264.945312 354.515625 265.386719 353.953125 C 266.367188 352.734375 267.203125 351.394531 268.132812 350.132812 C 268.839844 349.203125 269.925781 350.113281 269.269531 351.019531 C 268.59375 351.847656 266.8125 356.367188 269.089844 354.589844 C 269.421875 354.011719 269.746094 353.671875 270.0625 353.449219 C 270.292969 352.078125 270.871094 350.746094 271.636719 349.585938 C 271.84375 349.269531 272.160156 349.109375 272.492188 349.082031 C 272.523438 349.066406 272.558594 349.058594 272.585938 349.039062 C 272.59375 349.050781 272.59375 349.066406 272.601562 349.074219 C 272.746094 349.074219 272.882812 349.109375 273.027344 349.160156 C 272.457031 350.019531 272.039062 350.976562 271.808594 351.972656 C 271.707031 352.410156 271.945312 352.921875 272.40625 353.023438 C 272.839844 353.125 273.34375 352.894531 273.453125 352.425781 C 273.546875 352.035156 273.667969 351.648438 273.8125 351.273438 C 273.8125 351.265625 273.8125 351.265625 273.8125 351.265625 C 273.828125 351.222656 273.847656 351.179688 273.863281 351.136719 C 273.90625 351.042969 273.949219 350.960938 273.992188 350.867188 C 274.085938 350.6875 274.179688 350.507812 274.28125 350.335938 C 274.375 350.175781 274.488281 350.011719 274.597656 349.859375 C 274.648438 349.78125 274.707031 349.707031 274.769531 349.628906 C 274.800781 349.585938 274.851562 349.527344 274.871094 349.5 C 275.132812 349.183594 275.425781 348.894531 275.738281 348.621094 C 275.824219 348.546875 275.886719 348.460938 275.925781 348.351562 C 282.816406 343.710938 305.714844 342.867188 312.238281 342.722656 C 329.367188 341.390625 345.03125 332.550781 359.410156 323.722656 C 363.636719 321.609375 357.15625 330.613281 357.667969 332.335938 C 358.8125 334.835938 362.648438 320.058594 365.234375 320.644531 C 366.640625 322.34375 362.070312 325.941406 363.570312 328.125 C 364.738281 326.808594 369.1875 314.898438 370.554688 318.667969 C 369.242188 321.652344 367.195312 324.320312 366.640625 327.59375 C 369.230469 327.722656 371.382812 316.75 374.636719 315.929688 C 373.683594 318.171875 372.769531 320.441406 371.945312 322.734375 C 371.789062 323.167969 372.121094 323.664062 372.539062 323.78125 C 373.019531 323.910156 373.4375 323.621094 373.589844 323.1875 C 374.542969 320.542969 375.585938 317.925781 376.71875 315.351562 C 376.726562 315.339844 376.726562 315.332031 376.726562 315.316406 C 377.453125 315 378.21875 314.769531 379.003906 314.667969 C 377.488281 317.667969 375.976562 320.671875 374.460938 323.671875 C 373.964844 324.652344 375.441406 325.515625 375.933594 324.535156 C 377.613281 321.191406 379.300781 317.855469 380.984375 314.515625 C 384.46875 312.570312 377.605469 321.914062 379.113281 323.46875 C 381.316406 320.773438 383.394531 312.238281 386.847656 312.816406 C 387.027344 317.140625 382.125 322.25 381.085938 326.792969 C 383.039062 331.183594 388.425781 308.246094 392.757812 311.289062 C 391.753906 316.628906 388.394531 319.519531 387.933594 325.421875 C 391.222656 321.53125 393.382812 311.511719 396.605469 310.226562 C 397.984375 312.511719 394.070312 317.046875 394.046875 320.03125 C 393.476562 321.199219 395.113281 322.050781 395.386719 320.652344 C 397.097656 316.894531 398.464844 312.390625 401.175781 309.355469 C 402.8125 309.039062 401.960938 310.949219 401.652344 311.792969 C 401.003906 314.113281 398.234375 316.339844 399.035156 318.785156 C 402.734375 316.84375 402.34375 307.992188 407.195312 308.621094 C 407.859375 308.9375 407.511719 309.609375 407.289062 310.113281 C 406.582031 312.9375 402.863281 317.34375 404.125 319.945312 C 404.800781 320.226562 405.003906 319.511719 405.207031 319.007812 C 406.222656 316.492188 407.144531 313.925781 408.355469 311.496094 C 410.257812 307.761719 409.285156 307.523438 414.109375 306.78125 C 415.246094 306.789062 416.472656 305.773438 417.480469 306.394531 C 417.425781 308.828125 415.3125 310.941406 415.988281 313.722656 C 417.25 311.835938 420.34375 301.238281 422.867188 305.664062 C 422.542969 307.148438 421.425781 308.453125 421.734375 310.445312 C 424.011719 308.152344 424.367188 305.535156 426.261719 303.171875 C 428.863281 302.304688 426.125 306.566406 425.953125 307.632812 C 425.375 308.570312 426.527344 309.484375 426.96875 308.324219 C 428.035156 305.355469 434.910156 296.011719 430.867188 305.167969 C 430.566406 306.070312 429.902344 306.96875 430.421875 308.058594 C 432.394531 306.796875 432.757812 303.667969 434.25 301.773438 C 436.664062 297.980469 437.550781 300.265625 435.972656 302.550781 C 435.871094 302.960938 435.761719 303.410156 436.503906 303.71875 C 437.296875 302.992188 440.390625 295.753906 441.097656 298.96875 C 440.980469 300.058594 439.929688 300.972656 440.570312 302.542969 C 442.199219 300.511719 442.660156 297.851562 444.84375 296.242188 C 445.3125 298.636719 442.796875 300.257812 443.851562 302.984375 C 446.257812 298.398438 447.777344 293.402344 453.320312 292.164062 C 454.53125 293.296875 451.578125 297.765625 451.289062 299.652344 C 453.480469 299.667969 454.863281 293.410156 456.21875 291.59375 C 459.59375 287.132812 465.949219 285.683594 470.382812 282.308594 C 473.878906 280.515625 476.632812 277.054688 480.289062 275.84375 C 480.734375 278.144531 478.730469 280.15625 479.410156 283.320312 C 480.316406 280.167969 483.054688 277.292969 481.21875 274.898438 C 483.863281 272.910156 514.988281 247.234375 513.144531 256.894531 C 513.265625 256.929688 513.367188 256.972656 513.46875 257.039062 C 514.246094 256.605469 514.535156 255.746094 514.671875 255.003906 C 515.3125 251.039062 518.320312 249.65625 521.015625 246.945312 C 521.210938 250.507812 508.445312 275.972656 506.578125 282.496094 C 506.453125 282.691406 506.347656 282.871094 506.230469 283.03125 Z M 513.648438 282.871094 C 511.992188 283.140625 510.324219 283.355469 508.464844 282.9375 C 509.230469 278.300781 512.148438 274.332031 513.1875 269.925781 C 514.296875 267.488281 515.464844 265.074219 516.632812 262.667969 C 519.710938 256.316406 522.59375 249.886719 525.152344 243.3125 C 529.023438 236.617188 533.746094 229.882812 540.109375 225.960938 C 540.261719 226.199219 540.328125 226.4375 540.355469 226.675781 C 536.433594 232.941406 532.910156 239.464844 529.832031 246.203125 C 529.796875 246.269531 529.796875 246.332031 529.789062 246.398438 C 523.640625 258.269531 518.917969 271.09375 513.648438 282.871094 Z M 519.148438 282.808594 C 518.3125 282.800781 517.433594 283.082031 516.503906 282.441406 C 519.882812 267.625 528.382812 254.398438 534.488281 240.480469 C 537.449219 234.675781 540.738281 229.046875 544.347656 223.613281 C 544.566406 223.28125 544.507812 222.949219 544.320312 222.71875 C 546.324219 221.117188 544.046875 227.117188 543.578125 228.3125 C 546.09375 228.339844 546.929688 221.3125 549.515625 220.636719 C 551.175781 219.894531 552.789062 220.621094 551.363281 222.386719 C 547.730469 229.183594 544.089844 235.980469 540.390625 242.730469 C 534.191406 255.234375 526.875 267.273438 522.175781 280.457031 C 521.628906 282.050781 520.785156 282.835938 519.148438 282.808594 Z M 526.21875 282.121094 C 517.007812 284.957031 551.101562 226.898438 553.351562 222.089844 C 555.953125 226.710938 554.289062 230.914062 551.910156 235.066406 C 550.007812 238.390625 533.550781 267.691406 527.34375 281.785156 C 526.960938 281.890625 526.574219 282 526.21875 282.121094 Z M 528.410156 281.539062 C 528.65625 281.027344 548.753906 241.804688 551.636719 237.214844 C 552.625 235.644531 553.632812 234.28125 554.578125 233.410156 C 559.644531 237.820312 542.324219 266.539062 540.253906 274.273438 C 539.707031 280.074219 533.335938 280.464844 528.410156 281.539062 Z M 554.449219 251.539062 C 554.015625 253.316406 550.613281 257.101562 552.726562 258.328125 C 552.863281 258.386719 552.957031 258.855469 552.882812 259.054688 C 550.316406 264.945312 548.089844 273.328125 541.667969 275.851562 C 541.761719 272.167969 544.609375 268.792969 545.777344 265.261719 C 548.515625 259.136719 551.246094 253.015625 553.972656 246.886719 C 554.203125 246.355469 554.410156 245.835938 555.421875 245.511719 C 555.722656 247.796875 555.429688 249.699219 554.449219 251.539062 Z M 543.65625 260.972656 C 543.960938 262.039062 543.273438 262.855469 542.769531 263.640625 C 541.847656 265.082031 541.789062 266.992188 540.355469 268.132812 C 540.269531 268.09375 540.175781 268.050781 540.082031 268.023438 C 539.792969 266.15625 540.902344 264.679688 541.617188 263.121094 C 542.460938 261.289062 543.476562 260.347656 543.65625 260.972656 Z M 541.15625 249.308594 C 540.96875 249.222656 540.757812 249.1875 540.527344 249.214844 C 540.839844 248.335938 541.652344 247.542969 542.019531 246.679688 C 543.167969 247.53125 542.042969 248.453125 541.15625 249.308594 Z M 526.25 246.757812 C 527.386719 247.890625 526.167969 248.710938 525.816406 249.597656 C 525.101562 251.421875 524.554688 253.347656 522.78125 255.4375 C 522.859375 252.625 524.015625 250.960938 524.769531 249.152344 C 525.125 248.292969 525.160156 247.183594 526.25 246.757812 Z M 56.777344 445.261719 C 56.027344 445.015625 56.148438 443.914062 56.941406 443.847656 C 57.964844 443.65625 57.71875 445.601562 56.777344 445.261719 Z M 61.339844 434.867188 C 61.707031 434.089844 62.5 434.671875 62.894531 434.933594 C 62.613281 436.289062 60.992188 435.90625 61.339844 434.867188 Z M 385.535156 259.15625 C 386.941406 261.363281 384.15625 264.492188 384.09375 267.085938 C 383.234375 265.097656 383.148438 259.273438 385.535156 259.15625 Z M 381.714844 284.046875 C 383.839844 283.851562 381.792969 285.15625 381.382812 285.980469 C 381.359375 285.980469 381.332031 285.980469 381.304688 285.992188 C 381.160156 286.023438 381.042969 286.085938 380.941406 286.1875 C 380.890625 286.222656 380.855469 286.28125 380.8125 286.332031 C 378.84375 286.527344 380.429688 284.5 381.714844 284.046875 Z M 387.316406 288.199219 C 387.214844 288.089844 387.105469 287.984375 387.003906 287.875 C 387.15625 286.960938 387.804688 286.46875 388.546875 286.042969 C 390.320312 285.699219 388.128906 288.132812 387.316406 288.199219 Z M 386.242188 288.226562 C 386.457031 288.0625 386.746094 287.996094 386.996094 287.882812 C 387.097656 287.996094 387.207031 288.097656 387.308594 288.207031 C 387.035156 289.691406 384.878906 289.664062 386.242188 288.226562 Z M 398.222656 269.355469 C 398.257812 269.355469 398.292969 269.355469 398.328125 269.355469 C 398.316406 269.378906 398.308594 269.398438 398.300781 269.421875 C 398.328125 269.429688 398.378906 269.609375 398.378906 269.617188 Z M 347.460938 283.007812 C 347.460938 282.953125 347.460938 282.914062 347.460938 282.859375 C 345.765625 282.476562 342.960938 283.542969 341.929688 281.949219 C 342.480469 279.824219 348.714844 281.726562 350.539062 281.820312 C 352.246094 283.167969 348.265625 282.964844 347.460938 283.007812 Z M 353.679688 278.777344 C 351.394531 278.171875 347.761719 277.976562 347.011719 275.441406 C 348.050781 274.410156 352.621094 277.726562 353.679688 278.777344 Z M 349.378906 287.457031 C 348.222656 288.464844 339.617188 288.445312 342.789062 286.894531 C 344.863281 287.039062 346.992188 286.613281 349.378906 287.457031 Z M 373.292969 269.933594 C 371.824219 270.34375 370.886719 260.511719 372.335938 261.117188 C 374.3125 262.574219 373.886719 267.546875 373.292969 269.933594 Z M 366.613281 262.421875 C 368.652344 264.597656 368.292969 268.542969 368.457031 272.390625 C 367.117188 270.488281 364.730469 262.4375 366.613281 262.421875 Z M 359.84375 264.152344 C 361.875 266.566406 361.761719 270.179688 362.742188 273.15625 C 361.414062 273.394531 361.351562 272.507812 361.097656 272.03125 C 360.167969 269.6875 358.683594 266.515625 359.84375 264.152344 Z M 124.921875 328.488281 C 122.335938 333.691406 118.898438 337.980469 116.769531 343.882812 C 114.132812 342.875 124.664062 324.472656 124.921875 328.488281 Z M 106.636719 317.824219 C 104.804688 320.789062 102.535156 323.339844 100.113281 326.75 C 99.371094 324.746094 106.800781 313.449219 106.636719 317.824219 Z M 125.953125 332.046875 C 124.835938 335.472656 122.320312 338.375 120.246094 341.425781 C 118.421875 341.042969 125.753906 328.394531 125.953125 332.046875 Z M 127.394531 320.566406 C 127.222656 317.113281 129.761719 314.652344 131.035156 311.65625 C 134.617188 309.628906 128.347656 319.671875 127.394531 320.566406 Z M 103.832031 325.683594 C 105.597656 322.929688 107.003906 318.273438 109.988281 317.269531 C 110.800781 318.148438 104.871094 326.339844 103.832031 325.683594 Z M 115.316406 314.589844 C 115.523438 317.582031 111.574219 320.601562 109.996094 323.296875 C 110.96875 320.652344 112.992188 315.316406 115.316406 314.589844 Z M 123.605469 342.664062 C 123.238281 340.378906 125.125 337.519531 126.964844 335.960938 C 128.210938 336.316406 126.027344 341.75 123.605469 342.664062 Z M 136.097656 323.074219 C 136.558594 320.851562 137.546875 319.050781 139.066406 317.574219 C 142.621094 316.175781 137.265625 322.761719 136.097656 323.074219 Z M 137.242188 314.785156 C 136.808594 316.117188 135.929688 317.277344 135.179688 318.4375 C 134.597656 319.238281 134.726562 320.679688 133.226562 320.671875 C 132.59375 319.359375 135.621094 313.054688 137.242188 314.785156 Z M 114.492188 321.941406 C 114.824219 320.738281 115.890625 317.488281 117.414062 318.445312 C 117.613281 319.347656 115.242188 323.203125 114.492188 321.941406 Z M 281.164062 262.507812 C 281.128906 263.316406 265.167969 267.945312 268.808594 264.910156 C 271.253906 263.625 277.804688 262.351562 281.164062 262.507812 Z M 269.660156 255.847656 C 269.660156 255.855469 269.667969 255.863281 269.667969 255.882812 C 267.820312 257.707031 265.933594 259.472656 263.359375 260.238281 C 263.359375 260.230469 263.359375 260.214844 263.359375 260.203125 C 263.75 258.3125 265.304688 257.457031 266.828125 256.707031 C 267.699219 256.273438 268.695312 256.101562 269.660156 255.847656 Z M 208.734375 326.085938 C 204.238281 328.132812 198.535156 322.300781 198.75 317.875 C 198.6875 317.113281 199.753906 316.773438 200.257812 317.335938 C 202.003906 320.917969 203.8125 324.089844 207.90625 325.265625 C 208.308594 325.402344 208.683594 325.574219 208.734375 326.085938 Z M 224.59375 325.207031 C 220.398438 326.375 217.046875 324.703125 213.398438 323.289062 C 213.183594 321.820312 211.957031 320.945312 211.316406 319.722656 C 210.574219 317.566406 213.226562 318.46875 213.738281 319.742188 C 216.210938 324.039062 220.679688 323.433594 224.59375 325.207031 Z M 240.863281 320.917969 C 242.007812 317.882812 244.054688 315 241.800781 311.800781 C 241.714844 311.675781 241.878906 311.222656 242.050781 311.113281 C 246.925781 311.632812 243.804688 319.230469 240.863281 320.917969 Z M 213.320312 323.332031 C 212.734375 324.890625 211.480469 324.054688 210.542969 323.953125 C 209.320312 323.945312 206.816406 323.167969 207.632812 321.445312 C 209.492188 321.191406 211.472656 322.84375 213.320312 323.332031 Z M 213.347656 323.269531 C 213.363281 323.28125 213.382812 323.289062 213.398438 323.289062 C 213.398438 323.3125 213.414062 323.339844 213.414062 323.367188 C 213.382812 323.355469 213.355469 323.339844 213.320312 323.332031 C 213.328125 323.3125 213.339844 323.296875 213.347656 323.269531 Z M 220.261719 320.339844 C 219.878906 319.9375 220.441406 319.527344 220.808594 319.519531 C 226.300781 320.960938 226.453125 325.625 220.261719 320.339844 Z M 227.917969 308.390625 C 226.589844 310.796875 225.089844 307.683594 227.5625 307.742188 C 227.730469 307.785156 227.808594 308.167969 227.917969 308.390625 Z M 333.007812 209.109375 C 338.023438 202.46875 347.273438 216.714844 340.855469 212.339844 C 338.824219 209.621094 335.976562 209.417969 333.007812 209.109375 Z M 322.324219 205.988281 C 322.953125 206.671875 322.496094 207.378906 322.222656 207.933594 C 321.035156 210.328125 321.609375 212.820312 321.820312 215.285156 C 319.101562 214.78125 319.78125 205.929688 322.324219 205.988281 Z M 314.726562 208.503906 C 314.292969 209.347656 314.359375 210.484375 313.34375 211.027344 C 311.851562 209.40625 315.597656 202.550781 317.183594 203.429688 C 317.515625 204.394531 316.824219 205.042969 316.269531 205.535156 C 315.347656 206.363281 315.238281 207.523438 314.726562 208.503906 Z M 316.832031 208.699219 C 318.648438 207.335938 317.683594 211.019531 317.644531 211.558594 C 317.695312 212.929688 317.761719 213.925781 317.753906 214.933594 C 315.886719 217.542969 315.433594 209.65625 316.832031 208.699219 Z M 350.027344 218.269531 C 349.261719 218.847656 348.484375 219.4375 347.71875 220.015625 C 347.488281 217.253906 350.753906 215.460938 350.660156 212.503906 C 350.675781 212.339844 351.050781 212.058594 351.222656 212.085938 C 352.6875 213.082031 350.847656 215.769531 350.882812 217.320312 C 350.363281 217.414062 350.105469 217.757812 350.027344 218.269531 Z M 350.097656 218.226562 C 350.34375 217.917969 350.703125 217.664062 350.882812 217.320312 C 350.90625 217.3125 350.925781 217.304688 350.949219 217.304688 L 350.855469 217.421875 C 351.75 217.210938 352.167969 216.390625 352.824219 215.878906 C 355.878906 215.691406 349.339844 222.191406 350.113281 218.207031 L 350.019531 218.300781 C 350.019531 218.292969 350.027344 218.285156 350.027344 218.277344 C 350.054688 218.25 350.078125 218.242188 350.097656 218.226562 Z M 324.644531 212.605469 C 325.855469 212.410156 325.878906 214.363281 325.402344 215.078125 C 324.3125 214.867188 323.808594 213.320312 324.644531 212.605469 Z M 347.539062 220.136719 C 347.582031 220.109375 347.675781 220.050781 347.71875 220.015625 C 347.726562 220.042969 347.726562 220.066406 347.742188 220.09375 C 347.734375 220.085938 347.546875 220.136719 347.539062 220.136719 Z M 486.386719 277.132812 C 485.59375 281.019531 484.800781 284.90625 484.007812 288.796875 C 483.785156 289.871094 482.140625 289.410156 482.363281 288.34375 C 483.15625 284.457031 483.949219 280.566406 484.742188 276.679688 C 484.964844 275.597656 486.609375 276.054688 486.386719 277.132812 Z M 538.097656 242.972656 C 535.699219 248.367188 533.167969 253.707031 530.507812 258.976562 C 530.011719 259.957031 528.535156 259.097656 529.03125 258.117188 C 531.691406 252.84375 534.214844 247.507812 536.621094 242.109375 C 537.0625 241.105469 538.53125 241.972656 538.097656 242.972656 Z M 494.121094 238.246094 C 492.382812 239.910156 490.871094 241.785156 489.601562 243.839844 C 489.3125 244.308594 488.578125 243.875 488.867188 243.414062 C 490.164062 241.308594 491.734375 239.363281 493.515625 237.648438 C 493.90625 237.257812 494.511719 237.863281 494.121094 238.246094 Z M 428.292969 187.953125 C 425.785156 191.988281 423.558594 196.183594 421.613281 200.515625 C 421.394531 201.015625 420.660156 200.582031 420.882812 200.085938 C 422.816406 195.757812 425.050781 191.5625 427.558594 187.527344 C 427.847656 187.058594 428.582031 187.484375 428.292969 187.953125 Z M 359.792969 179.476562 C 361.839844 175.382812 364.363281 171.554688 367.296875 168.050781 C 367.644531 167.632812 368.25 168.238281 367.902344 168.65625 C 365.011719 172.109375 362.539062 175.886719 360.527344 179.914062 C 360.285156 180.398438 359.546875 179.964844 359.792969 179.476562 Z M 363.773438 177.175781 C 364.910156 174.855469 366.339844 172.691406 368.019531 170.738281 C 368.378906 170.320312 368.976562 170.925781 368.625 171.34375 C 366.988281 173.246094 365.609375 175.359375 364.507812 177.609375 C 364.269531 178.097656 363.535156 177.667969 363.773438 177.175781 Z M 368.285156 176.269531 C 370.128906 173.746094 371.96875 171.230469 373.8125 168.707031 C 374.136719 168.265625 374.867188 168.691406 374.542969 169.132812 C 372.703125 171.660156 370.859375 174.171875 369.019531 176.699219 C 368.703125 177.132812 367.960938 176.714844 368.285156 176.269531 Z M 373.238281 178.820312 C 375.125 175.144531 377.511719 171.742188 380.316406 168.714844 C 380.691406 168.316406 381.289062 168.921875 380.921875 169.320312 C 378.160156 172.296875 375.832031 175.640625 373.972656 179.257812 C 373.726562 179.742188 372.984375 179.308594 373.238281 178.820312 Z M 381.953125 287.847656 C 382.015625 287.941406 382.023438 288.078125 381.996094 288.183594 C 381.964844 288.292969 381.894531 288.371094 381.800781 288.4375 C 381.800781 288.4375 381.792969 288.4375 381.792969 288.445312 C 381.691406 288.53125 381.597656 288.625 381.519531 288.726562 C 381.441406 288.839844 381.375 288.949219 381.316406 289.070312 C 381.273438 289.171875 381.160156 289.230469 381.058594 289.265625 C 380.949219 289.300781 380.828125 289.273438 380.726562 289.222656 C 380.632812 289.171875 380.554688 289.070312 380.53125 288.964844 C 380.511719 288.90625 380.511719 288.855469 380.523438 288.796875 C 380.523438 288.738281 380.539062 288.683594 380.574219 288.632812 C 380.734375 288.25 381.023438 287.933594 381.367188 287.695312 C 381.460938 287.628906 381.589844 287.628906 381.699219 287.652344 C 381.808594 287.679688 381.902344 287.765625 381.953125 287.847656 Z M 381.953125 287.847656 "/></g></svg>